<svg xmlns="http://www.w3.org/2000/svg" width="84.842" height="62.693" viewBox="0 0 84.842 62.693"><defs><style>.a{fill:#fa0f00;}.b,.c{fill:#b3b3b3;}.c{fill-rule:evenodd;}</style></defs><g transform="translate(-3.98 -13)"><path class="a" d="M694.727,300.76a.616.616,0,0,1-.442-.174l-.8-.8a.628.628,0,0,1-.011-.879l6.183-6.461-6.359-6.289a.629.629,0,0,1-.01-.879l.771-.809a.623.623,0,0,1,.884-.018l7.292,7.206a1.083,1.083,0,0,1,.019,1.51l-7.083,7.4A.625.625,0,0,1,694.727,300.76Z" transform="translate(-638.809 -226.783)"/><path class="a" d="M679.542,300.714a.625.625,0,0,1-.44-.18l-7.189-7.308a1.08,1.08,0,0,1-.048-1.457l7.233-7.348a.628.628,0,0,1,.886-.006l.789.806a.627.627,0,0,1,0,.879l-6.272,6.375,6.271,6.375a.628.628,0,0,1,0,.879l-.783.8A.621.621,0,0,1,679.542,300.714Z" transform="translate(-638.809 -226.783)"/><g transform="translate(-638.809 -226.783)"><path class="b" d="M714.02,262.363l-1.162-.264,0-1.19a21.195,21.195,0,0,0-41.053-7.338l-.363.969-1.036,0a18.418,18.418,0,0,0-18.368,17.69l-.042,1.037-.986.325a11.967,11.967,0,0,0,3.758,23.33h16.582l-1.571-1.6a4.245,4.245,0,0,1-.459-.57H654.763a9.8,9.8,0,0,1-.8-19.574l.23-.019v-2.2a16.293,16.293,0,0,1,16.277-16.259,16.493,16.493,0,0,1,2.385.177l.228.034.052-.225a19.023,19.023,0,0,1,37.343,7.12l-.041.275.278.012a15.336,15.336,0,0,1-.6,30.66H704.8a4.008,4.008,0,0,1-.363.469l-1.624,1.7h7.32a17.5,17.5,0,0,0,3.887-34.563Z"/></g><path class="a" d="M683.877,302.476a.628.628,0,0,1-.626-.628.654.654,0,0,1,.02-.159l5.428-20.213a.627.627,0,0,1,.606-.465h.968a.631.631,0,0,1,.606.788l-5.4,20.213a.627.627,0,0,1-.6.464Z" transform="translate(-638.809 -226.783)"/><path class="c" d="M685.052,270.159c-1.478,2.38-2.932,3.885-3.779,3.885a.534.534,0,0,1-.379-.136.555.555,0,0,1-.194-.544c.161-.852,1.845-2.082,4.356-3.205Zm7.1-3.4c-.63.133-1.291.287-1.956.464-.478.127-.963.264-1.448.412.257-.525.494-1.05.7-1.546.272-.656.525-1.312.761-1.954.21.323.42.637.638.94a18.578,18.578,0,0,0,1.356,1.672Zm-3.282-11.329a.611.611,0,0,1,.51-.331c.56,0,.681.675.681,1.24a15.475,15.475,0,0,1-.735,3.92c-.939-2.488-.808-4.232-.458-4.829Zm10.518,13c-.082.42-.525.7-1.119.7a2.051,2.051,0,0,1-.506-.063,8.23,8.23,0,0,1-3.2-1.628,15.962,15.962,0,0,1,2.372-.183,8.544,8.544,0,0,1,1.581.122c.476.1,1.012.361.879,1.05Zm1.593-1.122c-.7-.752-2.04-1.134-3.982-1.134a21.123,21.123,0,0,0-3.216.279,15.875,15.875,0,0,1-1.854-2.165,19.883,19.883,0,0,1-1.155-1.8,18.308,18.308,0,0,0,1.031-5.2c0-1.59-.63-3.292-2.4-3.292a1.777,1.777,0,0,0-1.48.875c-.754,1.295-.453,3.962.752,6.676-.42,1.246-.876,2.46-1.437,3.8a33.948,33.948,0,0,1-1.628,3.372c-1.8.727-5.637,2.488-6,4.436a1.651,1.651,0,0,0,.525,1.55,2.288,2.288,0,0,0,1.562.558c2.31,0,4.612-3.2,6.163-5.952.881-.3,1.785-.572,2.675-.808.981-.26,1.929-.474,2.825-.63a8.768,8.768,0,0,0,5.708,2.458c1.5,0,2.056-.649,2.26-1.2a1.832,1.832,0,0,0-.348-1.832Z" transform="translate(-638.809 -226.783)"/></g></svg>