<?xml version="1.0" encoding="UTF-8"?>
<svg id="Layer_1" data-name="Layer 1" xmlns="http://www.w3.org/2000/svg" width="240" height="234" viewBox="0 0 240 234">
  <defs>
    <style>
      .cls-1 {
        fill: #eb1000;
      }

      .cls-2 {
        fill: #fff;
      }
    </style>
  </defs>
  <g id="a">
    <g id="b">
      <g id="c">
        <rect class="cls-1" width="240" height="234" rx="42.5" ry="42.5"/>
      </g>
    </g>
  </g>
  <g id="d">
    <g id="e">
      <path class="cls-2" d="m131.00618,156.75404c0,.99486-.80644,1.8013-1.8013,1.8013s-1.8013-.80644-1.8013-1.8013.80644-1.8013,1.8013-1.8013,1.8013.80644,1.8013,1.8013Zm-3.6026,4.3186c-.53136,0-.99738.20601-1.39934.49242.07915-.23112.14697-.46979.14697-.72856,0-1.25865-1.02124-2.28114-2.28114-2.28114s-2.28114,1.02249-2.28114,2.28114c0,1.26115,1.02124,2.28114,2.28114,2.28114.47105,0,.88432-.17586,1.2486-.42206-.09547.26128-.16832.53763-.16832.83156,0,1.35411,1.09912,2.45448,2.45323,2.45448,1.35538,0,2.45448-1.10037,2.45448-2.45448s-1.09912-2.45448-2.45448-2.45448v-.00002Zm-4.26334,5.44661c-.08919-1.47218-1.28252-2.64793-2.77731-2.64793-.26253,0-.49869.0829-.73861.14822.43211-.47231.71223-1.08781.71223-1.77869,0-1.46465-1.1883-2.65295-2.65296-2.65295s-2.65296,1.18829-2.65296,2.65295,1.1883,2.65295,2.65296,2.65295c.22862,0,.43337-.07536.64565-.13065-.47482.50246-.77755,1.17323-.77755,1.91937,0,1.27875.87176,2.3138,2.04122,2.65547-.00126.03767-.02135.06783-.02135.10551,0,1.67317,1.35788,3.0323,3.03357,3.0323,1.67442,0,3.0323-1.35915,3.0323-3.0323,0-1.48476-1.08781-2.66301-2.49721-2.92429l.00002.00002Zm-7.01426,2.73335c.13189-.34418.22234-.70847.22234-1.10039,0-1.60785-1.23729-2.8866-2.8037-3.04236.38563-.49242.65319-1.0853.65319-1.76109,0-1.38676-.99109-2.48965-2.28994-2.77856.59415-.49492.99486-1.21092.99486-2.04498,0-1.03506-.60295-1.90681-1.45963-2.35651,1.32397-.05779,2.3854-1.13303,2.3854-2.46956,0-1.37421-1.11419-2.48715-2.48841-2.48715s-2.48841,1.11295-2.48841,2.48715c0,.93205.53511,1.71588,1.29508,2.14297-1.45963.03265-2.63789,1.21342-2.63789,2.68311,0,1.25865.88055,2.26607,2.04499,2.56503-.68585.53009-1.1569,1.32397-1.1569,2.25853,0,1.46465,1.10289,2.62532,2.51353,2.82379-.45723.54015-.76499,1.21594-.76499,1.97968,0,1.48727,1.06897,2.67055,2.46454,2.97202-.22987.46477-.38815.96974-.38815,1.52495,0,1.92189,1.55887,3.47951,3.48075,3.47951s3.48075-1.55762,3.48075-3.47951c0-1.77115-1.34407-3.17802-3.05744-3.39659l.00005-.00003Zm-35.61523-21.3744c0,1.23354-.70846,2.27109-1.71463,2.83636.1834-.03265.35046-.11053.54265-.11053,1.82517,0,3.30489,1.47974,3.30489,3.30363,0,.52757-.14948,1.00742-.36805,1.44958.57657-.49744,1.30387-.82906,2.12538-.82906,1.79125,0,3.23581,1.43703,3.27726,3.21822.35549-1.36417,1.51616-2.37662,2.97327-2.44193-.30398-.45723-.52506-.97726-.52506-1.57018,0-1.60283,1.29884-2.90167,2.90167-2.90167,1.60157,0,2.90042,1.29884,2.90042,2.90167,0,1.49229-1.14183,2.67809-2.59141,2.83887.43337.55521.73358,1.22348.73358,1.98218,0,.85667-.34669,1.62292-.88432,2.20578.59541.57532.94713,1.36165,1.04259,2.22839.09672-.83408.45975-1.5752,1.05013-2.11282-.66701-.5703-1.11168-1.38676-1.11168-2.33139,0-1.62042,1.25488-2.90921,2.83887-3.05241-.40322-.48486-.67706-1.08781-.67706-1.76865,0-1.02249.5728-1.87666,1.38677-2.36906-1.20087-.19344-2.13418-1.18829-2.13418-2.44695,0-1.3943,1.13052-2.52483,2.52609-2.52483s2.52609,1.13052,2.52609,2.52483c0,.88432-.47984,1.62292-1.16569,2.07513,1.38552.17084,2.47459,1.30638,2.47459,2.74089,0,1.40938-1.05515,2.52483-2.40676,2.72581.5125.5527.84161,1.28127.84161,2.09525,0,.82654-.33539,1.56766-.86297,2.12538.84664.61803,1.432,1.56766,1.432,2.69566,0,.61551-.20852,1.16318-.49492,1.66061,1.11796.63309,1.90556,1.78622,1.90556,3.16045,0,.39442-.10928.7562-.22485,1.11295.38187.18088.72982.41452,1.03506.69841-.34795-.53259-.60169-1.13303-.60169-1.81889,0-.72353.27761-1.35915.66575-1.91183-1.15439-.46729-1.97213-1.58775-1.97213-2.91171,0-.93707.4296-1.75607,1.08028-2.33139-.87804-.49994-1.49731-1.40688-1.49731-2.48965,0-1.51741,1.177-2.7233,2.6605-2.85394-.55396-.48486-.922-1.17574-.922-1.96962,0-1.0853.6557-2.01233,1.59027-2.42183-.13817.02512-.26379.0829-.40824.0829-1.36793,0-2.47584-1.11041-2.47584-2.4771s1.10791-2.4771,2.47584-2.4771,2.47584,1.11041,2.47584,2.4771c0,1.01245-.61299,1.88168-1.48475,2.26357.15953-.03015.3065-.09547.47482-.09547,1.46214,0,2.64794,1.18579,2.64794,2.64793,0,1.35663-1.03631,2.4369-2.35274,2.58765.66575.53259,1.12047,1.31644,1.12047,2.23592,0,.79388-.32157,1.51239-.8391,2.03494,1.02752.52003,1.75105,1.55762,1.75105,2.7861,0,.61803-.22359,1.16068-.53135,1.64806,1.34281.45221,2.32385,1.68323,2.32385,3.17551,0,.41704-.09923.80644-.23741,1.17574,1.60785.46979,2.80621,1.89426,2.80621,3.65285,0,2.13544-1.73096,3.86639-3.86639,3.86639-1.84401,0-3.31369-1.31894-3.70058-3.04739-.38689,1.88168-1.97465,3.32375-3.9719,3.32375-1.62418,0-2.99714-.95969-3.6742-2.32133-.69339,1.52747-2.21331,2.6002-3.99954,2.6002-1.63423,0-3.00342-.93205-3.76464-2.25351-.77127,1.39432-2.20201,2.37662-3.90784,2.37662-1.65182,0-3.03608-.92953-3.82619-2.25351-.79137,1.33401-2.18442,2.27109-3.84755,2.27109-1.94324,0-3.57245-1.23354-4.22062-2.94942-.82403.819-1.95706,1.32648-3.21068,1.32648-2.51604,0-4.55726-2.03996-4.55726-4.55727,0-.19595.08793-.36427.1118-.5527-.46603.1633-.94964.29645-1.47219.29645-2.4972,0-4.52209-2.02489-4.52209-4.52209,0-.9798.3781-1.83647.90693-2.57759-2.23592-.20601-4.00707-2.0274-4.00707-4.3186,0-1.74352,1.03631-3.22325,2.51102-3.93422-1.30136-.73106-2.21834-2.07262-2.21834-3.67043,0-2.30376,1.83396-4.1553,4.11887-4.24072-.73358-.74614-1.19207-1.76865-1.19207-2.89915,0-2.29118,1.85657-4.14777,4.14776-4.14777.06909,0,.12687.03517.19596.04021-.7989-.74614-1.31392-1.78874-1.31392-2.96951,0-2.25853,1.83019-4.08746,4.08872-4.08746.16707,0,.30775.07536.46854.09547-.90944-.73862-1.52746-1.8214-1.52746-3.08507,0-2.22588,1.80381-4.02969,4.02843-4.02969.26379,0,.49366.10049.74238.15074-1.02626-.71851-1.741-1.84903-1.741-3.19812,0-2.19321,1.77743-3.96939,3.96939-3.96939.36177,0,.68711.11556,1.02124.20601-1.15062-.68083-1.96083-1.87918-1.96083-3.31369,0-2.16055,1.75105-3.91161,3.91035-3.91161.45849,0,.88306.11556,1.29131.26128-1.27498-.62807-2.17186-1.91184-2.17186-3.42674,0-2.12789,1.72468-3.85131,3.85131-3.85131,1.13429,0,2.12915.50999,2.83384,1.29131.4409-.19344.92326-.31152,1.43702-.31152,1.14811,0,2.12287.57531,2.77732,1.41692.4497-.23113.93959-.39443,1.48098-.39443,1.17323,0,2.15427.64817,2.73586,1.57268.44216-.25625.92703-.44216,1.47596-.44216,1.39431,0,2.51353.96974,2.85017,2.25853.30022-.11305.61802-.19344.95843-.19344,1.50485,0,2.72456,1.21845,2.72456,2.7233,0,.7989-.35674,1.49983-.90442,1.99977.2864-.12059.60043-.18842.9308-.18842,1.32899,0,2.4055,1.07776,2.4055,2.40676,0,.65319-.26504,1.24357-.68836,1.67569.37935-.34167.86925-.56275,1.41943-.56275,1.18454,0,2.14548.95969,2.14548,2.14548,0,1.18328-.96094,2.14297-2.14548,2.14297-1.18328,0-2.14422-.95969-2.14422-2.14297,0-.58285.23615-1.10791.61299-1.4948-.42709.3894-.9823.64063-1.60534.64063-1.32774,0-2.40424-1.07776-2.40424-2.40424,0-.66575.27258-1.2687.70972-1.70583-.32408.13817-.68083.21354-1.05641.21354-1.18077,0-2.16181-.76122-2.53991-1.81386-.38815.1834-.81021.30398-1.2687.30398-.97602,0-1.8013-.49492-2.35023-1.21594-.53511.37935-1.15439.65068-1.86159.65068-.94587,0-1.78371-.41201-2.38415-1.05264-.5527.35172-1.17072.60797-1.87416.60797-.93708,0-1.77492-.37935-2.41178-.96974-.56024.31655-1.17072.54516-1.85908.54516-.4497,0-.86673-.11556-1.26744-.25625.36805.18088.71474.39694,1.00617.67831.51502-.27886,1.07525-.47984,1.70206-.47984,1.06646,0,2.00354.47984,2.66678,1.21594.5125-.32408,1.0853-.56024,1.73598-.56024,1.09158,0,2.01359.56024,2.6203,1.36919.49743-.35925,1.07776-.61551,1.73975-.61551,1.29884,0,2.38666.82403,2.82003,1.97213.34418-.15576.71977-.25374,1.12299-.25374,1.51741,0,2.74591,1.23101,2.74591,2.74591,0,.56024-.20852,1.05264-.49617,1.48727.2148-.06281.42834-.13566.6645-.13566,1.34658,0,2.43816,1.09284,2.43816,2.43942,0,.3894-.1118.74614-.27384,1.07275.32785-.19847.69087-.34418,1.10163-.34418,1.19961,0,2.17312.97224,2.17312,2.17313,0,1.19835-.97351,2.17059-2.17312,2.17059s-2.17312-.97224-2.17312-2.17059c0-.31654.07411-.61299.19596-.88432-.37935.2462-.80393.42206-1.2888.42206-1.34783,0-2.43942-1.09283-2.43942-2.43942,0-.45221.15576-.85166.37182-1.21594-.27133.08793-.54642.17083-.84664.17083-1.09535,0-2.02489-.65319-2.4658-1.58022-.44342.25123-.92954.43714-1.47722.43714-.88558,0-1.66438-.39443-2.21959-.99988-.58033.49994-1.31392.83156-2.14046.83156-.85417,0-1.61665-.34669-2.20578-.87678-.61551.48236-1.35537.81649-2.19698.81649-.48864,0-.9509-.103-1.37673-.27886.40322.17586.76247.42709,1.07651.72605.56777-.43714,1.24609-.74112,2.01861-.74112,1.00742,0,1.88546.46477,2.50097,1.16569.54014-.47482,1.23101-.78885,2.00731-.78885,1.22096,0,2.25602.72605,2.74843,1.7611.39945-.22359.83659-.38689,1.32774-.38689,1.52872,0,2.76852,1.23855,2.76852,2.76601,0,.35172-.08039.68333-.19973.99236.16832-.03767.3266-.103.50748-.103,1.36542,0,2.47333,1.10791,2.47333,2.47459,0,.23615-.07286.45221-.13441.66826.3178-.18088.66575-.31152,1.05767-.31152,1.20715,0,2.18568.9798,2.18568,2.18819,0,1.20589-.97853,2.18568-2.18568,2.18568-1.2084,0-2.18693-.9798-2.18693-2.18568,0-.17838.06155-.33664.10175-.50246-.38689.2487-.819.4296-1.31141.4296-1.36542,0-2.47333-1.10791-2.47333-2.47208,0-.26379.07411-.50748.15074-.74614-.24495.07034-.48612.15074-.75368.15074-1.01245,0-1.86034-.5728-2.34269-1.38426-.49994.35423-1.07525.60545-1.73347.60545-.80644,0-1.52872-.3266-2.07639-.83659-.29519.31403-.64691.56526-1.04385.74614.1947-.04021.37558-.11807.58285-.11807,1.14308,0,2.10277.65068,2.63789,1.57268.45472-.31906.97727-.54768,1.57394-.54768,1.54128,0,2.78988,1.25111,2.78988,2.79112,0,.19847-.07286.37433-.11305.56024.18591-.04271.36177-.11305.56149-.11305,1.37296,0,2.48715,1.11545,2.48715,2.48965,0,.12309-.05276.22862-.06909.34418.32911-.19847.69339-.34418,1.10666-.34418,1.20715,0,2.18568.9798,2.18568,2.18568,0,1.2084-.97853,2.18568-2.18568,2.18568s-2.18568-.97726-2.18568-2.18568c0-.06029.02889-.10803.03392-.16832-.39945.27383-.85417.46979-1.37296.46979-1.37421,0-2.48841-1.11545-2.48841-2.48715,0-.11053.04899-.20349.06281-.30901-.26128.08038-.52506.1633-.81272.1633-.93205,0-1.71588-.48486-2.22211-1.18579-.54265.46227-1.22222.77127-1.98972.77127-.76499,0-1.44204-.3065-1.98218-.76624-.13315.17586-.25625.34921-.42206.49744,1.00742.04271,1.85406.5728,2.39922,1.34657.49617-.41956,1.11419-.70091,1.81386-.70091,1.57017,0,2.84264,1.27373,2.84264,2.84389,0,.04523-.02387.0829-.02638.12813.19344-.04773.3781-.11807.58536-.11807,1.37924,0,2.49845,1.12047,2.49845,2.49971s-1.11922,2.49721-2.49845,2.49721c-1.32774,0-2.38917-1.0451-2.46705-2.35149-.29645.103-.60295.18842-.93457.18842-.85166,0-1.59152-.39191-2.11282-.98482-.57029.5728-1.3604.92953-2.23341.92953-.72605,0-1.36291-.28641-1.89551-.69841-.07537.12309-.15074.24118-.23992.35423.84287.11053,1.56263.52003,2.07137,1.15062.52506-.53511,1.25237-.87177,2.06258-.87177,1.59906,0,2.89539,1.29633,2.89539,2.89413,0,1.60033-1.29633,2.89665-2.89539,2.89665-.82277,0-1.55635-.34921-2.08393-.90192-.59038.716-1.44958,1.20087-2.45072,1.20087m.44467,19.44499c.67078.45723,1.23101,1.05013,1.53751,1.81136.09923-.1633.19721-.32408.3178-.46979-.48989-.60295-.81272-1.33653-.84412-2.16557-.28389.33916-.6243.60545-1.01119.82404v-.00003Zm7.76543.92703c.39066.36679.70846.7989.93205,1.29382.09044-.19344.23239-.34921.35172-.52255-.43588-.41452-.72982-.94461-.91824-1.52997-.09044.27383-.21731.51753-.36554.75871v-.00002Zm7.35719-1.47974c-.05401.49744-.19847.95467-.43211,1.3717.69087.54265,1.16318,1.2888,1.37421,2.17059.10928-.42458.28137-.80392.52381-1.15314-.80393-.54015-1.34783-1.38174-1.46591-2.38918v.00002Zm-8.11464-3.1906c.53009.44467.91321,1.01747,1.12801,1.69077.20977-.63812.57405-1.18327,1.074-1.61037-.46603-.5527-.77127-1.23856-.78885-2.01233-.2148.8215-.71349,1.49229-1.41315,1.93195l-.00002-.00002Zm-6.77811-3.34634c-1.2172,0-2.23592-.68835-2.80872-1.66815.01507.13817.08039.25626.08039.39944,0,.63309-.19847,1.19835-.47733,1.72092.37935-.13065.77127-.24118,1.19584-.24118,1.99851,0,3.60385,1.59027,3.6742,3.57245.29896-.35423.65445-.63812,1.06395-.85667-.59164-.59541-.95843-1.41441-.95843-2.32133,0-.52255.14697-.99738.36428-1.43703-.57908.49994-1.31015.83156-2.13418.83156Zm-2.12413-6.03951c-.82905,0-1.56389-.33414-2.14422-.8391-.27384.86423-.8504,1.55762-1.62042,2.00983,1.14057.17586,2.08519.8391,2.63286,1.80632-.00628-.08542-.04899-.15826-.04899-.24368,0-1.23856.71097-2.27612,1.71965-2.84138-.18214.03015-.34795.10803-.53888.10803v-.00002Zm4.55224-24.10777c-.75996,0-1.42571-.29645-1.98846-.72102-.14069.13567-.32534.21355-.48612.3266.85166.05527,1.62921.38689,2.19698.95467.27384-.29395.59792-.53009.96597-.69841-.22987.04773-.44342.13817-.68836.13817h-.00002Zm-3.15416-6.74043c-.28891-.12561-.52758-.3266-.77127-.52004-.13817.09547-.26756.20098-.41704.28137.41578.02261.82151.08793,1.18831.23867Zm2.96574-14.02602c.55898,0,1.08153-.13566,1.55887-.35423.6444.69841,1.54756,1.15062,2.57257,1.15062.58913,0,1.11922-.18088,1.6066-.43462.59415.75117,1.47345,1.26367,2.50599,1.26367.58787,0,1.10917-.19847,1.58399-.47231.52381.84161,1.41441,1.432,2.47836,1.432.38815,0,.75494-.08542,1.09409-.22108.28137,1.19333,1.30387,2.09775,2.58136,2.09775,1.39808,0,2.50976-1.07525,2.65045-2.4369.3266.89688,1.16821,1.54505,2.17814,1.54505,1.29131,0,2.33893-1.04511,2.33893-2.33893,0-1.29131-1.04762-2.33641-2.33893-2.33641-1.1971,0-2.14799.91195-2.28617,2.07262-.34293-1.09786-1.3315-1.90933-2.54242-1.90933-.27886,0-.5326.08039-.78509.15827-.20349-1.44204-1.3918-2.57005-2.89037-2.57005-.43337,0-.8391.103-1.21092.27133-.53888-1.04259-1.59655-1.77869-2.85143-1.77869-.43085,0-.83784.09295-1.21343.2462-.62932-.9622-1.66438-1.63549-2.89916-1.63549-.40699,0-.78132.10552-1.1456.23113-.69087-.92452-1.74226-1.56263-2.98584-1.56263-2.09398,0-3.79228,1.69578-3.79228,3.79102,0,2.09272,1.6983,3.79102,3.79228,3.79102l.00002-.00002Zm2.96951-7.13737c.44844,0,.86548-.11054,1.26367-.25374.63435.8391,1.59404,1.41943,2.72833,1.41943.47231,0,.922-.09798,1.33276-.26881.57154.87427,1.51113,1.48727,2.63412,1.48727.46854,0,.90693-.11305,1.30764-.29394.4811.96722,1.45461,1.64805,2.60774,1.64805.32283,0,.62053-.08793.9107-.1834.13441,1.35663,1.23981,2.42686,2.63035,2.42686,1.18579,0,2.15804-.78132,2.51227-1.84903.36177.83156,1.1883,1.41692,2.15427,1.41692,1.29759,0,2.35023-1.05264,2.35023-2.35149s-1.05264-2.35149-2.35023-2.35149c-.99486,0-1.83647.62304-2.1794,1.49731-.38563-1.00491-1.34532-1.72593-2.48715-1.72593-.21731,0-.41201.07537-.61425.1231-.03266-1.59278-1.32397-2.87906-2.9268-2.87906-.33413,0-.64189.08793-.94085.19093-.45849-1.2084-1.6066-2.07514-2.97453-2.07514-.31529,0-.60169.09547-.8906.18088-.57029-1.13806-1.71714-1.93947-3.07628-1.93947-.2977,0-.56401.09798-.84036.17083-.65193-1.09033-1.79125-1.85406-3.15165-1.85406-2.06006,0-3.73198,1.67066-3.73198,3.73324,0,2.06006,1.67192,3.73072,3.73198,3.73072h.00003Zm2.97076-7.13485c.33539,0,.6356-.10803.94461-.19093.59415,1.01245,1.64805,1.72593,2.90796,1.72593.35297,0,.67329-.10049.9936-.20098.50999,1.06018,1.57268,1.80381,2.82756,1.80381.37307,0,.71851-.09295,1.05139-.21103.39443,1.13555,1.44456,1.96208,2.71577,1.96208.27258,0,.51753-.08542.76876-.15576-.00251.03768-.02135.06783-.02135.103,0,1.46968,1.18956,2.6605,2.65924,2.6605,1.01873,0,1.87541-.5929,2.32134-1.43451.35423.8592,1.19584,1.46465,2.18191,1.46465,1.30513,0,2.36405-1.05767,2.36405-2.36405,0-1.30387-1.05892-2.36405-2.36405-2.36405-.87301,0-1.60409.49743-2.01359,1.20087-.35423-1.05264-1.31769-1.8214-2.48966-1.8214-.19973,0-.37558.07034-.56275.11305.01256-.10552.06281-.19847.06281-.30901,0-1.60534-1.30136-2.9067-2.9067-2.9067-.26881,0-.50999.08542-.75619.15325-.34418-1.37421-1.52997-2.41429-3.01096-2.41429-.22485,0-.42332.0829-.6356.12813-.4811-1.30889-1.71086-2.25351-3.18556-2.25351-.18968,0-.35423.07788-.53511.10803-.58285-1.25865-1.83898-2.14297-3.31746-2.14297-2.0274,0-3.67169,1.64303-3.67169,3.67294,0,2.0274,1.64428,3.67294,3.67169,3.67294l-.00002.00002Zm2.97076-7.13737c.22108,0,.41327-.08793.6243-.12561.51753,1.19333,1.70206,2.03243,3.08758,2.03243.26756,0,.50497-.09295.75368-.15325.41578,1.23604,1.54756,2.14046,2.92303,2.14046.30273,0,.57782-.09295.85543-.17335.2663,1.31392,1.3717,2.32134,2.76224,2.32134.26002,0,.49366-.0829.73358-.14822-.0314.1633-.09798.31403-.09798.48487,0,1.45461,1.18077,2.63789,2.63789,2.63789.88934,0,1.638-.46979,2.11533-1.1456.31529.94461,1.177,1.63549,2.22587,1.63549,1.31141,0,2.37535-1.0652,2.37535-2.37661s-1.06395-2.37661-2.37535-2.37661c-.76122,0-1.40813.38187-1.84275.93708-.30775-1.11545-1.28503-1.95204-2.49845-1.95204-.18968,0-.35674.07034-.53637.10803.05653-.22359.13817-.43965.13817-.68083,0-1.58776-1.28628-2.87404-2.8753-2.87404-.20224,0-.38061.07537-.57154.11556-.19093-1.54254-1.45335-2.75094-3.04613-2.75094-.16455,0-.30524.06783-.46351.09295-.36051-1.47219-1.62795-2.58764-3.2132-2.58764-.11808,0-.21731.05527-.33162.06783-.48738-1.41943-1.79502-2.45449-3.38026-2.45449-1.99474,0-3.61265,1.61539-3.61265,3.61265,0,1.99474,1.6179,3.61265,3.61265,3.61265v-.00002Zm2.97076-7.13737c.15702,0,.29142-.07034.44216-.09044.41704,1.35914,1.63423,2.36656,3.13029,2.36656.20224,0,.37684-.08039.57029-.11556.28263,1.40938,1.46842,2.49217,2.95946,2.49217.2349,0,.44216-.0829.66073-.13315.09295,1.48727,1.3001,2.67306,2.80998,2.67306.24746,0,.46854-.08039.69716-.14069-.09547.27133-.17335.55521-.17335.8592,0,1.44456,1.17198,2.61779,2.61653,2.61779,1.02626,0,1.89425-.60546,2.3226-1.46717-.01382.10049-.06029.19093-.06029.29645,0,1.31894,1.06897,2.38666,2.38792,2.38666s2.38792-1.06772,2.38792-2.38666-1.06897-2.38917-2.38792-2.38917c-.93205,0-1.71839.55019-2.11157,1.32899.0201-.13315.07788-.25123.07788-.38689,0-1.44456-1.17072-2.61528-2.61653-2.61528-.17963,0-.3379.06783-.50874.103.13064-.3266.21229-.67831.21229-1.05013,0-1.57017-1.27372-2.84389-2.84389-2.84389-.13943,0-.26002.06029-.39443.08039,0-.00502.00251-.00754.00251-.01256,0-1.70081-1.37798-3.07753-3.07879-3.07753-.103,0-.18968.04773-.28891.05778-.20726-1.63549-1.54882-2.91926-3.24083-2.91926-.06281,0-.11431.03266-.17586.03517-.36428-1.57519-1.71086-2.77606-3.39659-2.77606-1.96334,0-3.55361,1.59278-3.55361,3.55487s1.59027,3.55235,3.55361,3.55235h-.00002Zm3.02352-7.11224c.13943,0,.25876-.06281.39317-.08039.23992,1.58022,1.54254,2.81123,3.18933,2.81123.20977,0,.39317-.0829.5929-.12059.0201,1.67569,1.37673,3.0298,3.05618,3.0298.34041,0,.65319-.09044.95969-.19344-.03517.17837-.10803.34418-.10803.53511,0,1.57519,1.27875,2.85394,2.85394,2.85394.47105,0,.89688-.1432,1.2888-.34418-.36679.45472-.61802,1.00993-.61802,1.638,0,1.46465,1.18579,2.65045,2.64794,2.65045,1.4634,0,2.64919-1.18579,2.64919-2.65045,0-1.46214-1.18579-2.64794-2.64919-2.64794-.41452,0-.79388.11305-1.14308.28389.40448-.49241.67831-1.09786.67831-1.78371,0-1.57519-1.27749-2.85394-2.85394-2.85394-.27886,0-.53009.0829-.78383.15827.05778-.23364.1432-.45975.1432-.71097,0-1.69327-1.37296-3.06497-3.06497-3.06497-.13943,0-.25876.06029-.39317.08039.00126-.05276.02889-.09295.02889-.14571,0-1.81386-1.47094-3.28354-3.2848-3.28354-.05401,0-.09798.02763-.15199.03015-.16581-1.77366-1.61288-3.18054-3.43051-3.18054-1.92943,0-3.49457,1.56515-3.49457,3.49457s1.56515,3.49457,3.49457,3.49457h-.00002Zm4.36256-6.346c.23364,0,.43965-.08793.66073-.13315-.01256.11305-.06658.21103-.06658.3266,0,1.8013,1.46089,3.26344,3.2647,3.26344.35549,0,.68083-.09798,1.0024-.20098-.08667.28389-.17837.56777-.17837.8793,0,1.70583,1.38175,3.08758,3.08633,3.08758.69213,0,1.3001-.27133,1.81512-.6557-.45975.51502-.75996,1.17826-.75996,1.9244,0,1.61539,1.30889,2.92429,2.92429,2.92429s2.92429-1.30889,2.92429-2.92429-1.30889-2.92429-2.92429-2.92429c-.64817,0-1.21594.25123-1.70081.60797.48864-.54516.8077-1.2486.8077-2.03997,0-1.70332-1.38175-3.08507-3.08633-3.08507-.30273,0-.57657.09044-.85292.17083.11054-.3266.20726-.66324.20726-1.02752,0-1.80381-1.46214-3.26595-3.2647-3.26595-.1834,0-.34293.07537-.51878.10552.02261-.16079.09421-.30147.09421-.46728,0-1.89677-1.53751-3.43428-3.43428-3.43428s-3.43553,1.53751-3.43553,3.43428,1.53877,3.43428,3.43553,3.43428v-.00002Zm5.95409-4.86125c.38563,0,.74238-.10049,1.08781-.21857-.19093.41201-.31403.86422-.31403,1.34909,0,1.79376,1.45335,3.24586,3.24586,3.24586s3.2446-1.45209,3.2446-3.24586c0-1.79125-1.45209-3.24586-3.2446-3.24586-.35925,0-.68962.09798-1.01245.20349.21982-.44718.36805-.93205.36805-1.46465,0-1.86411-1.51113-3.37398-3.37524-3.37398s-3.37524,1.50988-3.37524,3.37398,1.51113,3.37649,3.37524,3.37649h0Zm7.05572-3.00468c1.83145,0,3.3162-1.48475,3.3162-3.3162s-1.48475-3.3162-3.3162-3.3162-3.3162,1.48475-3.3162,3.3162,1.48475,3.3162,3.3162,3.3162Zm7.60465-.90693c1.79878,0,3.25716-1.45712,3.25716-3.25591s-1.45837-3.25591-3.25716-3.25591-3.25591,1.45712-3.25591,3.25591,1.45712,3.25591,3.25591,3.25591Zm7.53432,1.2687c1.76488,0,3.19687-1.432,3.19687-3.19812s-1.43201-3.19812-3.19687-3.19812c-1.76613,0-3.19812,1.432-3.19812,3.19812s1.43201,3.19812,3.19812,3.19812Zm9.56673,6.25556c-.30022-.09295-.6042-.18842-.93707-.18842-1.74854,0-3.16672,1.41943-3.16672,3.16798,0,.43714.08919.85417.24997,1.23353-.22485-.05025-.43588-.13566-.6758-.13566-1.7523,0-3.173,1.41943-3.173,3.173,0,.66324.24997,1.24357.59792,1.75105-.20349-.0402-.39317-.1231-.60922-.1231-1.73096,0-3.13406,1.40436-3.13406,3.13532,0,.78383.31654,1.47973.79262,2.02992-.26881-.08039-.53763-.16832-.83282-.16832-1.6581,0-3.00217,1.34407-3.00217,3.00217s1.34407,3.00217,3.00217,3.00217,3.00092-1.34407,3.00092-3.00217c0-.73861-.29645-1.3918-.73862-1.91435.29395.09044.58788.1834.91196.1834,1.72971,0,3.1328-1.40436,3.1328-3.1328,0-.65068-.24495-1.22096-.58286-1.72091.21103.04522.4095.12813.63435.12813,1.75105,0,3.17174-1.41943,3.17174-3.17049,0-.43965-.09044-.8592-.25374-1.24106.22485.05025.43588.13566.67455.13566,1.74854,0,3.16672-1.41692,3.16672-3.16546,0-.33664-.09421-.64314-.19093-.94713.27885.0829.55647.17335.86298.17335,1.70081,0,3.0788-1.37673,3.0788-3.07753s-1.37798-3.07753-3.0788-3.07753c-1.69955,0-3.07753,1.37673-3.07753,3.07753,0,.30901.09171.59038.17586.87176l.00002-.00004Zm31.25644,69.28596c0,1.35159,1.09535,2.44695,2.44569,2.44695s2.44569-1.09535,2.44569-2.44695c0-1.34909-1.09535-2.44444-2.44569-2.44444s-2.44569,1.09535-2.44569,2.44444Zm3.07753,7.06953c0,1.29884,1.05389,2.354,2.354,2.354s2.354-1.05515,2.354-2.354c0-1.30136-1.05389-2.354-2.354-2.354s-2.354,1.05264-2.354,2.354Zm3.07753,7.06702c0,1.25111,1.01245,2.26357,2.2623,2.26357,1.2486,0,2.26105-1.01245,2.26105-2.26357,0-1.2486-1.01245-2.26105-2.26105-2.26105-1.24986,0-2.2623,1.01245-2.2623,2.26105Zm2.92805,7.12984c0,1.19835.97224,2.17059,2.16936,2.17059,1.19835,0,2.17059-.97224,2.17059-2.17059s-.97224-2.16809-2.17059-2.16809c-1.1971,0-2.16936.96974-2.16936,2.16809Zm2.408,5.52951c-1.14685,0-2.07765.92953-2.07765,2.07765s.9308,2.07765,2.07765,2.07765,2.07765-.92953,2.07765-2.07765-.9308-2.07765-2.07765-2.07765Zm-3.16422,7.01427c-1.0966,0-1.98595.88934-1.98595,1.9847,0,1.09785.88934,1.98721,1.98595,1.98721s1.9847-.88934,1.9847-1.98721c0-1.09535-.88809-1.9847-1.9847-1.9847Zm-5.35992,5.40892c-1.0451,0-1.89301.84915-1.89301,1.89426s.84789,1.89174,1.89301,1.89174c1.04636,0,1.89301-.84663,1.89301-1.89174s-.84663-1.89426-1.89301-1.89426Zm-6.04578,1.57771c-1.22067,0-2.2083.99052-2.2083,2.2112,0,1.21484.98761,2.20537,2.20828,2.20537s2.20828-.99052,2.20828-2.20537c0-1.22067-.98761-2.2112-2.20828-2.2112h.00002Zm-52.12086-114.4516c0,1.7812,1.44456,3.22325,3.22576,3.22325s3.22576-1.44204,3.22576-3.22325c0-1.78371-1.44456-3.22576-3.22576-3.22576s-3.22576,1.44204-3.22576,3.22576Zm7.27931.33413c0,1.77115,1.43576,3.20566,3.20566,3.20566,1.77115,0,3.20566-1.43451,3.20566-3.20566s-1.43451-3.20566-3.20566-3.20566c-1.7699,0-3.20566,1.43451-3.20566,3.20567Zm10.01392-.6557c-1.75986,0-3.18681,1.42697-3.18681,3.18556,0,.80644.32533,1.52495.82027,2.08519-.38062-.16079-.79765-.25374-1.23729-.25374-1.73975,0-3.15039,1.40938-3.15039,3.15039,0,1.73849,1.41064,3.15039,3.15039,3.15039s3.15039-1.4119,3.15039-3.15039c0-.79639-.32156-1.50485-.80894-2.05755.38815.16581.81271.26379,1.26242.26379,1.75986,0,3.18681-1.42697,3.18681-3.18807,0-.6557-.2462-1.23101-.58536-1.73598.40698.19344.85165.32157,1.33276.32157,1.73347,0,3.13783-1.40687,3.13783-3.13783,0-1.73347-1.40436-3.13783-3.13783-3.13783s-3.13783,1.40436-3.13783,3.13783c0,.64314.23991,1.20589.57153,1.70332-.41829-.20098-.87177-.33664-1.36794-.33664h-.00002Zm38.04837,78.36782c-1.34407,0-2.43439,1.09033-2.43439,2.43439s1.09033,2.43439,2.43439,2.43439c1.34532,0,2.43565-1.09033,2.43565-2.43439s-1.09033-2.43439-2.43565-2.43439Zm5.15518,9.1497c0-1.28629-1.04259-2.32887-2.33012-2.32887s-2.33012,1.04259-2.33012,2.32887c0,1.2888,1.04259,2.33139,2.33012,2.33139s2.33012-1.04259,2.33012-2.33139Zm2.72079,6.71782c0-1.231-.99738-2.22839-2.22713-2.22839-1.2285,0-2.22588.99738-2.22588,2.22839,0,1.2285.99738,2.22588,2.22588,2.22588,1.22977,0,2.22713-.99738,2.22713-2.22588Zm-.46352,9.15723c1.17198,0,2.12161-.94965,2.12161-2.12036,0-1.17323-.94965-2.12286-2.12161-2.12286s-2.12161.94965-2.12161,2.12286c0,1.17072.94965,2.12036,2.12161,2.12036Zm-59.43156-96.20999c0-1.71588-1.3918-3.10768-3.10768-3.10768-1.71714,0-3.10768,1.3918-3.10768,3.10768s1.39054,3.10768,3.10768,3.10768c1.71588,0,3.10768-1.3918,3.10768-3.10768Zm3.71439-3.79102c-1.72844,0-3.12904,1.40185-3.12904,3.13029,0,1.72593,1.40059,3.12778,3.12904,3.12778s3.12904-1.40185,3.12904-3.12778c0-1.72844-1.40059-3.13029-3.12904-3.13029Zm43.4196,83.81695c0,1.32146,1.07024,2.39168,2.39043,2.39168s2.39043-1.07024,2.39043-2.39168c0-1.31894-1.07024-2.38918-2.39043-2.38918s-2.39043,1.07024-2.39043,2.38918Zm2.77229,6.35101c0,1.25613,1.01872,2.27361,2.27612,2.27361,1.25613,0,2.27486-1.01747,2.27486-2.27361,0-1.25865-1.01872-2.27612-2.27486-2.27612-1.25739,0-2.27612,1.01747-2.27612,2.27612Zm6.88487,6.42891c0-1.19333-.96722-2.16055-2.16055-2.16055s-2.16055.96722-2.16055,2.16055.96722,2.16055,2.16055,2.16055,2.16055-.96722,2.16055-2.16055Zm-.11555,4.94917c-1.12927,0-2.04498.91447-2.04498,2.04498,0,1.12801.91573,2.04498,2.04498,2.04498,1.13052,0,2.04625-.91698,2.04625-2.04498,0-1.13052-.91573-2.04498-2.04625-2.04498Zm-52.15981-4.45677c1.21342,0,2.20074-.98482,2.20074-2.20074s-.98732-2.20074-2.20074-2.20074c-1.21594,0-2.20074.98482-2.20074,2.20074s.98482,2.20074,2.20074,2.20074Zm-5.54207.59541c1.37673,0,2.49217-1.11545,2.49217-2.49217s-1.11545-2.49217-2.49217-2.49217c-1.37547,0-2.49217,1.11545-2.49217,2.49217s1.11671,2.49217,2.49217,2.49217Zm1.89551-85.28914c1.65433,0,2.99463-1.34155,2.99463-2.99714,0-1.65308-1.3403-2.99463-2.99463-2.99463s-2.99588,1.34155-2.99588,2.99463c0,1.65559,1.34155,2.99714,2.99588,2.99714Zm9.47127-2.20326c0-1.69327-1.37296-3.06748-3.06622-3.06748s-3.06622,1.37421-3.06622,3.06748,1.37296,3.06497,3.06622,3.06497,3.06622-1.3717,3.06622-3.06497Zm34.06641,71.32845c-1.35286,0-2.45071,1.09535-2.45071,2.44946s1.09785,2.44946,2.45071,2.44946,2.45071-1.09535,2.45071-2.44946-1.09785-2.44946-2.45071-2.44946Zm.1633,8.42114c0,1.28377,1.04008,2.32385,2.32385,2.32385s2.32385-1.04008,2.32385-2.32385-1.04008-2.32385-2.32385-2.32385-2.32385,1.04008-2.32385,2.32385Zm7.00925,5.9767c0-1.21342-.98355-2.19824-2.19698-2.19824s-2.19698.98482-2.19698,2.19824.98355,2.19824,2.19698,2.19824,2.19698-.98482,2.19698-2.19824Zm.89059,8.15485c1.14433,0,2.07137-.92703,2.07137-2.07011,0-1.1456-.92703-2.07262-2.07137-2.07262-1.14308,0-2.07137.92703-2.07137,2.07262,0,1.14308.92828,2.07011,2.07137,2.07011Zm2.4256,3.78474c0-1.07526-.8705-1.94701-1.9445-1.94701s-1.9445.87177-1.9445,1.94701c0,1.07274.8705,1.9445,1.9445,1.9445s1.9445-.87177,1.9445-1.9445Zm-51.55937-17.67761c0-1.28629-1.04385-2.32887-2.33013-2.32887s-2.33013,1.04259-2.33013,2.32887,1.04385,2.32887,2.33013,2.32887,2.33013-1.04259,2.33013-2.32887Zm-34.09154,3.29108c1.60911,0,2.91424-1.30386,2.91424-2.91425,0-1.60785-1.30513-2.91425-2.91424-2.91425s-2.91424,1.30638-2.91424,2.91425c0,1.61037,1.30513,2.91425,2.91424,2.91425Zm-.86171-7.56947c0-1.61539-1.31015-2.9268-2.9268-2.9268s-2.92805,1.31142-2.92805,2.9268c0,1.6179,1.31141,2.9268,2.92805,2.9268s2.9268-1.30888,2.9268-2.9268Zm26.94035-69.74571c0,1.52746,1.23855,2.76852,2.76727,2.76852,1.52746,0,2.76601-1.24106,2.76601-2.76852s-1.23855-2.76601-2.76601-2.76601c-1.52872,0-2.76727,1.23855-2.76727,2.76601Zm5.94152-.31152c0,1.59278,1.29131,2.88409,2.88409,2.88409s2.88409-1.29131,2.88409-2.88409-1.29131-2.88409-2.88409-2.88409-2.88409,1.29131-2.88409,2.88409Zm38.17147,74.33563c0,1.30888,1.06145,2.3716,2.3716,2.3716,1.30888,0,2.3716-1.06268,2.3716-2.3716,0-1.31142-1.06268-2.3716-2.3716-2.3716-1.31015,0-2.3716,1.06018-2.3716,2.3716Zm6.93513,5.62498c0-1.23354-.99988-2.23341-2.23341-2.23341s-2.23341.99988-2.23341,2.23341.99988,2.23341,2.23341,2.23341,2.23341-.99988,2.23341-2.23341Zm1.47345,3.32121c-1.15565,0-2.09525.93707-2.09525,2.09525,0,1.15565.93959,2.09525,2.09525,2.09525,1.15816,0,2.09525-.93959,2.09525-2.09525,0-1.15816-.93707-2.09525-2.09525-2.09525Zm.65005,5.29839c-1.08028,0-1.95706.87427-1.95706,1.95454s.87679,1.95956,1.95706,1.95956,1.9558-.8793,1.9558-1.95956-.87553-1.95454-1.9558-1.95454Zm-39.53752-13.04372c0-1.07526-.87177-1.94701-1.94701-1.94701-1.07776,0-1.94952.87177-1.94952,1.94701s.87177,1.94701,1.94952,1.94701c1.07526,0,1.94701-.87177,1.94701-1.94701Zm-6.52187-4.60751c0,1.15062.93205,2.08015,2.08015,2.08015s2.08015-.92953,2.08015-2.08015-.93205-2.08015-2.08015-2.08015-2.08015.92953-2.08015,2.08015Zm-5.34486,2.66051c1.22096,0,2.2108-.99236,2.2108-2.2133s-.98984-2.2108-2.2108-2.2108c-1.22222,0-2.21206.98984-2.21206,2.2108s.98984,2.2133,2.21206,2.2133Zm-5.63754.04271c1.29508,0,2.34395-1.05013,2.34395-2.34395s-1.04887-2.34395-2.34395-2.34395c-1.29382,0-2.34395,1.05013-2.34395,2.34395s1.05013,2.34395,2.34395,2.34395Zm-16.81338-.56776c1.38929,0,2.51604-1.12801,2.51604-2.5173s-1.12675-2.5173-2.51604-2.5173c-1.39054,0-2.5173,1.12801-2.5173,2.5173s1.12675,2.5173,2.5173,2.5173Zm-1.19082-6.59975c0-1.38426-1.12299-2.50725-2.50725-2.50725s-2.50725,1.12299-2.50725,2.50725,1.12299,2.50725,2.50725,2.50725,2.50725-1.12299,2.50725-2.50725Zm11.12937-31.35316c0-1.31141-1.06144-2.37159-2.37033-2.37159-1.31015,0-2.37159,1.06018-2.37159,2.37159,0,1.30889,1.06144,2.36907,2.37159,2.36907,1.30889,0,2.37033-1.06018,2.37033-2.36907Zm13.99713-26.04975c1.39808,0,2.53237-1.13303,2.53237-2.53237,0-1.39682-1.13429-2.53237-2.53237-2.53237s-2.53237,1.13555-2.53237,2.53237c0,1.39934,1.13429,2.53237,2.53237,2.53237Zm5.57096-5.35365c-1.48853,0-2.69441,1.20589-2.69441,2.69316,0,1.48978,1.20589,2.69567,2.69441,2.69567s2.69441-1.20589,2.69441-2.69567c0-1.48727-1.20589-2.69316-2.69441-2.69316Zm33.39061,70.42152c-1.32774,0-2.40424,1.07526-2.40424,2.40424,0,1.32648,1.07651,2.40424,2.40424,2.40424s2.40424-1.07776,2.40424-2.40424c0-1.32899-1.07651-2.40424-2.40424-2.40424Zm2.14548,9.87073c1.24734,0,2.25728-1.00993,2.25728-2.25603,0-1.2486-1.00993-2.25853-2.25728-2.25853-1.24609,0-2.25603,1.00993-2.25603,2.25853,0,1.24609,1.00993,2.25603,2.25603,2.25603Zm5.56845,2.57759c0-1.1657-.94461-2.11031-2.11031-2.11031-1.16444,0-2.10905.94461-2.10905,2.11031s.94461,2.11031,2.10905,2.11031c1.1657,0,2.11031-.94461,2.11031-2.11031Zm-1.1142,3.95683c-1.08279,0-1.96208.8793-1.96208,1.9646s.8793,1.9646,1.96208,1.9646c1.0853,0,1.9646-.8793,1.9646-1.9646s-.8793-1.9646-1.9646-1.9646Zm-42.82294-25.01721c-1.11671,0-2.02238.90694-2.02238,2.02238,0,1.11797.90567,2.02238,2.02238,2.02238s2.02238-.90442,2.02238-2.02238c0-1.11545-.90567-2.02238-2.02238-2.02238Zm-5.15016,3.10516c1.15565,0,2.09272-.93707,2.09272-2.09271,0-1.15816-.93708-2.09525-2.09272-2.09525-1.1569,0-2.09398.93707-2.09398,2.09525,0,1.15565.93708,2.09271,2.09398,2.09271Zm-5.27452.01006c1.19459,0,2.16432-.96722,2.16432-2.16307s-.96974-2.16557-2.16432-2.16557c-1.19584,0-2.16432.96974-2.16432,2.16557s.96848,2.16307,2.16432,2.16307Zm-5.2607.03767c1.20589,0,2.18442-.97726,2.18442-2.18317s-.97853-2.18568-2.18442-2.18568c-1.20715,0-2.18568.9798-2.18568,2.18568s.97853,2.18317,2.18568,2.18317Zm-5.24939-.1432c1.20715,0,2.18568-.97726,2.18568-2.18568,0-1.20589-.97853-2.18317-2.18568-2.18317s-2.18442.97726-2.18442,2.18317c0,1.2084.97727,2.18568,2.18442,2.18568Zm-1.68825-5.46671c0-1.2084-.97853-2.18568-2.18568-2.18568s-2.18568.97726-2.18568,2.18568c0,1.20589.97853,2.18568,2.18568,2.18568s2.18568-.9798,2.18568-2.18568Zm6.52437-22.21854c1.16821,0,2.11659-.94713,2.11659-2.11533,0-1.17072-.94838-2.11785-2.11659-2.11785-1.16946,0-2.11659.94713-2.11659,2.11785,0,1.16821.94713,2.11533,2.11659,2.11533Zm.02261-6.92885c0,1.15313.93457,2.0877,2.0877,2.0877s2.08895-.93457,2.08895-2.0877-.93582-2.0877-2.08895-2.0877-2.0877.93457-2.0877,2.0877Zm2.11533-4.81351c0,1.15062.93205,2.08267,2.08393,2.08267,1.15062,0,2.08393-.93205,2.08393-2.08267s-.93331-2.08519-2.08393-2.08519c-1.15188,0-2.08393.93457-2.08393,2.08519Zm2.08267-4.81351c0,1.16569.94587,2.11031,2.11157,2.11031s2.11157-.94461,2.11157-2.11031c0-1.16821-.94587-2.11282-2.11157-2.11282s-2.11157.94461-2.11157,2.11282Zm2.08393-4.81351c0,1.18077.95718,2.13794,2.1392,2.13794,1.18077,0,2.13794-.95718,2.13794-2.13794,0-1.18328-.95718-2.14046-2.13794-2.14046-1.18202,0-2.1392.95718-2.1392,2.14046Zm2.3653-4.67031c0,1.19584.96974,2.16558,2.16684,2.16558,1.19584,0,2.16558-.96974,2.16558-2.16558s-.96974-2.16558-2.16558-2.16558c-1.1971,0-2.16684.96974-2.16684,2.16558Zm8.97636-2.3942c0-1.2486-1.01119-2.25853-2.25979-2.25853s-2.25979,1.00993-2.25979,2.25853,1.01119,2.26105,2.25979,2.26105,2.25979-1.01245,2.25979-2.26105Zm5.17905,1.34155c0-1.36165-1.10414-2.46705-2.46706-2.46705s-2.46706,1.1054-2.46706,2.46705c0,1.36416,1.10414,2.46705,2.46706,2.46705s2.46706-1.10289,2.46706-2.46705Zm29.57698,76.14195c0,1.17072.94965,2.12036,2.12036,2.12036s2.12036-.94965,2.12036-2.12036-.94965-2.12036-2.12036-2.12036-2.12036.94965-2.12036,2.12036Zm-27.14761-14.48074c.96346,0,1.74477-.78133,1.74477-1.74603,0-.9622-.78133-1.74352-1.74477-1.74352s-1.74477.78133-1.74477,1.74352c0,.96471.78133,1.74603,1.74477,1.74603Zm-2.0676-7.8609c-.93205,0-1.6895.7562-1.6895,1.68825,0,.93457.75745,1.69077,1.6895,1.69077.9333,0,1.6895-.7562,1.6895-1.69077,0-.93205-.7562-1.68825-1.6895-1.68825Zm-3.24586-3.59254c-.90192,0-1.63298.73106-1.63298,1.63298s.73106,1.63298,1.63298,1.63298,1.63423-.73106,1.63423-1.63298-.73233-1.63298-1.63423-1.63298Zm-4.15027.63812c.8705,0,1.57771-.70595,1.57771-1.57771s-.7072-1.57771-1.57771-1.57771c-.87176,0-1.57771.70595-1.57771,1.57771s.70595,1.57771,1.57771,1.57771Zm-4.71554-1.28127c.86548,0,1.5664-.70091,1.5664-1.56766,0-.86423-.70092-1.56516-1.5664-1.56516-.86422,0-1.56515.70091-1.56515,1.56516,0,.86673.70092,1.56766,1.56515,1.56766Zm-6.4691-1.66815c0,.86673.70344,1.57018,1.57017,1.57018s1.57017-.70345,1.57017-1.57018-.70344-1.57018-1.57017-1.57018-1.57017.70345-1.57017,1.57018Zm-3.33127-1.54756c-.86925,0-1.57394.70595-1.57394,1.5752s.70469,1.5752,1.57394,1.5752,1.57394-.70595,1.57394-1.5752-.70469-1.5752-1.57394-1.5752Zm-2.6919-.21857c0-.87177-.70595-1.58022-1.57771-1.58022s-1.57896.70847-1.57896,1.58022.7072,1.57771,1.57896,1.57771,1.57771-.70595,1.57771-1.57771Zm-2.93685-4.65022c0,.87427.70846,1.58273,1.58273,1.58273s1.58273-.70847,1.58273-1.58273-.70846-1.58273-1.58273-1.58273-1.58273.70847-1.58273,1.58273Zm5.17779-4.47437c0-.88432-.71725-1.60033-1.60032-1.60033-.88432,0-1.60157.716-1.60157,1.60033s.71725,1.60033,1.60157,1.60033c.88306,0,1.60032-.716,1.60032-1.60033Zm.39317-6.12743c-.91195,0-1.65182.73861-1.65182,1.65308,0,.91196.73986,1.65056,1.65182,1.65056s1.65182-.73862,1.65182-1.65056c0-.91447-.73986-1.65308-1.65182-1.65308Zm3.69681-2.82379c0-.93959-.76247-1.70081-1.70206-1.70081-.94085,0-1.70206.76122-1.70206,1.70081,0,.9421.76122,1.70332,1.70206,1.70332.93959,0,1.70206-.76122,1.70206-1.70332Zm.29268-6.22792c-.96848,0-1.75357.78634-1.75357,1.75357,0,.96974.78509,1.75357,1.75357,1.75357.96722,0,1.75231-.78383,1.75231-1.75357,0-.96722-.78509-1.75357-1.75231-1.75357Zm1.99349-4.5246c-.99612,0-1.80381.80644-1.80381,1.80381s.8077,1.80381,1.80381,1.80381,1.80381-.80644,1.80381-1.80381-.8077-1.80381-1.80381-1.80381Zm3.85006-2.67055c0-1.02501-.83156-1.85406-1.85531-1.85406-1.02501,0-1.85531.82905-1.85531,1.85406s.83031,1.85406,1.85531,1.85406c1.02375,0,1.85531-.82905,1.85531-1.85406Zm.13943-6.38117c-1.05264,0-1.90556.85417-1.90556,1.90681s.85292,1.9043,1.90556,1.9043c1.05139,0,1.90556-.85166,1.90556-1.9043s-.85417-1.90681-1.90556-1.90681Zm4.22941-2.39922c0-1.08028-.87553-1.95706-1.9558-1.95706s-1.95706.87678-1.95706,1.95706.87678,1.95706,1.95706,1.95706,1.9558-.87678,1.9558-1.95706Zm4.62761-.33916c0-1.1255-.91321-2.03745-2.03871-2.03745-1.12675,0-2.03997.91195-2.03997,2.03745,0,1.12801.91322,2.03997,2.03997,2.03997,1.1255,0,2.03871-.91195,2.03871-2.03997Zm34.80754,75.16971c0,1.35411-1.09785,2.45198-2.45198,2.45198-1.35538,0-2.45323-1.09785-2.45323-2.45198,0-.33916.06909-.66074.19218-.95215-.40698.23866-.85417.41452-1.36165.41452-1.51112,0-2.73586-1.22598-2.73586-2.73837,0-.47984.15701-.90694.37308-1.29884-.06155.0025-.11305.03517-.17586.03517-1.61162,0-2.91675-1.30638-2.91675-2.91675,0-.58788.21606-1.10289.51376-1.56012-1.43074-.26881-2.53488-1.46716-2.53488-2.97704,0-.53259.16959-1.00742.40573-1.44456-1.38551-.37685-2.42435-1.59027-2.42435-3.09512,0-.48988.12561-.94461.31906-1.36165-1.33025-.46227-2.29874-1.68825-2.29874-3.17551,0-.47482.09923-.92451.27509-1.33653-1.27623-.50748-2.18442-1.74352-2.18442-3.20316,0-.45723.09923-.88683.26003-1.28629-1.27248-.53259-2.16809-1.78622-2.16809-3.25089,0-.44467.103-.86171.25249-1.25111-1.26994-.55521-2.16055-1.81386-2.16055-3.28856,0-.43462.10551-.8391.24747-1.22348-1.26619-.5728-2.15678-1.83395-2.15678-3.31369,0-.43211.10803-.83156.24495-1.21342-1.25362-.5929-2.13544-1.84653-2.13544-3.32625,0-.46227.10803-.89688.26379-1.30386-1.20087-.5929-2.04625-1.8038-2.04625-3.23329,0-.52004.11682-1.00993.31403-1.45712-1.15565-.55521-1.96837-1.71337-1.96837-3.08005,0-.60295.19595-1.14057.46729-1.63298-1.16821-.45472-2.00354-1.57771-2.00354-2.9067,0-.70595.27635-1.32397.66953-1.84903-1.24609-.2864-2.19572-1.3516-2.19572-2.68813,0-.82403.36806-1.55007.9333-2.06509-1.35159-.0201-2.44318-1.11796-2.44318-2.47459,0-1.36919,1.11041-2.47961,2.48087-2.47961.90442,0,1.66187.50999,2.09525,1.23353.13567-.36428.33791-.68585.5929-.96974-1.12927-.11054-2.05254-.84412-2.41806-1.87667-.21103.99737-1.05515,1.7611-2.11533,1.7611-1.21971,0-2.20703-.98732-2.20703-2.20578s.98732-2.20829,2.20703-2.20829c.89563,0,1.65936.54014,2.00479,1.30638.10803-.75619.48988-1.39934,1.06897-1.84652-.08919.01005-.16707.05276-.25876.05276-1.47722,0-2.67432-1.19584-2.67432-2.67306s1.1971-2.67557,2.67432-2.67557c.29018,0,.55521.08039.81648.16581-.27885-.45723-.48236-.96471-.48236-1.54002,0-.82403.33414-1.56766.8705-2.11282-.21857.05276-.42709.13315-.66199.13315-1.57771,0-2.85645-1.27875-2.85645-2.85645s1.27875-2.85645,2.85645-2.85645c.64314,0,1.20715.25123,1.68448.61048,0-.02763-.01508-.05025-.01508-.07788,0-1.71839,1.3943-3.11271,3.11272-3.11271.12059,0,.22359.05527.34041.06783-.1947-.41201-.32156-.8592-.32156-1.34658,0-1.7611,1.42947-3.19059,3.19183-3.19059.10677,0,.19595.05025.30022.06029-.14194-.36177-.23489-.75117-.23489-1.16318,0-1.76362,1.43074-3.1931,3.19435-3.1931.17963,0,.33539.07286.50874.103-.04773-.21857-.13315-.42457-.13315-.65822,0-1.73849,1.40938-3.14788,3.14662-3.14788.26128,0,.49492.08793.73735.14822-.01006-.09798-.05779-.1834-.05779-.2864,0-1.66815,1.35286-3.01975,3.01974-3.01975s3.01849,1.3516,3.01849,3.01975-1.35159,3.01975-3.01849,3.01975c-.22359,0-.42206-.08039-.63184-.12813.01759.13566.07915.25374.07915.39443,0,1.73849-1.40813,3.14537-3.14662,3.14537-.16707,0-.31027-.07034-.46979-.09547.05276.23113.14069.4497.14069.69841,0,1.76362-1.42947,3.19561-3.1931,3.19561-.10677,0-.1972-.05025-.30273-.06029.14194.35925.23489.74614.23489,1.15816,0,.26128-.08919.49241-.14822.7361.49869-1.13052,1.62167-1.9244,2.93559-1.9244.20349,0,.38187.08039.57532.11556-.00879-.09044-.05402-.17083-.05402-.26379,0-1.72844,1.40059-3.12778,3.12778-3.12778.31277,0,.59792.09295.88306.17837.01508-1.62293,1.32899-2.93685,2.95569-2.93685,1.63423,0,2.95946,1.32648,2.95946,2.96197s-1.32523,2.95946-2.95946,2.95946c-.26003,0-.49367-.08542-.73483-.14822.00127.0402.02261.07286.02261.11305,0,1.72593-1.39934,3.12527-3.12653,3.12527-.17838,0-.33289-.07286-.50371-.10049.01256.11556.06909.21857.06909.33916,0,1.77618-1.43953,3.21571-3.21445,3.21571-.1143,0-.21103-.05276-.32156-.06532.06155.25123.15324.49241.15324.76122,0,1.27121-.74741,2.34144-1.80884,2.87655.33289-.11305.6758-.21103,1.04636-.21103.14697,0,.27258.06532.41327.0829-.01006-.10803-.06281-.20349-.06281-.31403,0-1.78623,1.44958-3.23581,3.23706-3.23581.26505,0,.50121.09044.74866.15074.049-1.66061,1.39557-2.99714,3.06747-2.99714.4095,0,.79639.08793,1.15439.23364.14697-1.46465,1.3428-2.62281,2.84515-2.62281,1.60283,0,2.90292,1.29884,2.90292,2.90167s-1.30009,2.90419-2.90292,2.90419c-.33414,0-.64314-.08542-.94209-.19093-.07788,1.638-1.40311,2.9469-3.05743,2.9469-.20726,0-.38815-.07788-.58411-.11808,0,.01005.00502.01759.00502.02763,0,1.78874-1.44958,3.23832-3.23706,3.23832-.12561,0-.23239-.05778-.35548-.07034.01508.12561.07536.23867.07536.3693,0,1.2084-.68083,2.22085-1.64806,2.79616.27133-.07034.53386-.16581.82779-.16581.2123,0,.39694.0829.59792.12059.03392-1.72342,1.42947-3.11271,3.16045-3.11271.36806,0,.70972.09295,1.03882.20852.17209-1.49731,1.39934-2.67808,2.94438-2.67808.51501,0,.97476.1633,1.39934.3894.20224-1.3717,1.33401-2.44193,2.76099-2.44193,1.57018,0,2.84389,1.27372,2.84389,2.84389s-1.27373,2.84389-2.84389,2.84389c-.43965,0-.84412-.11808-1.21594-.29645-.16959,1.50234-1.39682,2.68562-2.94438,2.68562-.30273,0-.57782-.09044-.85292-.17083-.11305,1.64554-1.45209,2.96197-3.13029,2.96197-.15324,0-.28389-.06532-.43085-.08793,0,.02763.01508.05025.01508.07537,0,1.2888-.75368,2.3741-1.82265,2.93182.31027-.10049.6243-.19596.96722-.19596.31906,0,.60922.09547.89938.18088.1432-1.56766,1.42195-2.81375,3.02853-2.81375.47482,0,.91196.12813,1.31517.31906.24495-1.37421,1.3918-2.4369,2.8351-2.4369.62053,0,1.1657.23615,1.63927.56526.24495-1.2888,1.32523-2.28114,2.68311-2.28114,1.53751,0,2.78485,1.2486,2.78485,2.78611s-1.24734,2.7836-2.78485,2.7836c-.5527,0-1.03882-.20349-1.47218-.47984-.21732,1.40436-1.38174,2.50222-2.85017,2.50222-.41077,0-.80016-.08793-1.15439-.23867-.22108,1.48727-1.44833,2.64542-2.99588,2.64542-.25626,0-.48361-.08793-.72102-.14571-.0829,1.71337-1.47218,3.08507-3.20692,3.08507-.15701,0-.29143-.06783-.44215-.08793-.03642.8391-.36679,1.59529-.90315,2.17312.28137.01256.54265.0829.80141.16079.24368-1.48727,1.47597-2.6404,3.0323-2.6404.42583,0,.83031.08793,1.20087.24118.23741-1.41441,1.41315-2.51478,2.89665-2.51478.59038,0,1.10918.21606,1.57268.50999.27885-1.2888,1.3717-2.27361,2.74466-2.27361.72729,0,1.37296.29394,1.87791.73861.28262-1.20338,1.31392-2.12036,2.60522-2.12036,1.5061,0,2.72581,1.22096,2.72581,2.72582,0,1.50736-1.21971,2.72833-2.72581,2.72833-.66701,0-1.25613-.2663-1.73096-.66575-.26128,1.30889-1.36417,2.31883-2.7522,2.31883-.53259,0-1.00365-.18591-1.43074-.43965-.25751,1.3918-1.42068,2.46454-2.8866,2.46454-.36929,0-.716-.08793-1.04259-.21103-.19093,1.54505-1.45837,2.75848-3.05492,2.75848-.25374,0-.47984-.08793-.71725-.14571-.08038.78885-.38815,1.51239-.922,2.04248.43965.00251.86044.08793,1.24232.24871.32031-1.32397,1.45963-2.32888,2.88409-2.32888.54768,0,1.03255.1834,1.47597.43965.26505-1.3315,1.38426-2.35149,2.79112-2.35149.70595,0,1.32899.28137,1.8327.70092.3065-1.20589,1.35036-2.11533,2.6517-2.11533.85292,0,1.589.40448,2.10152,1.00993.28389-1.16821,1.2888-2.05504,2.54369-2.05504,1.47345,0,2.66678,1.19584,2.66678,2.66803,0,1.4747-1.19333,2.66803-2.66678,2.66803-.79388,0-1.48727-.36177-1.97591-.91195-.2776,1.24609-1.33904,2.19824-2.6693,2.19824-.65445,0-1.231-.25876-1.70583-.63812-.29268,1.29633-1.39557,2.28114-2.77856,2.28114-.49367,0-.93582-.15325-1.3428-.37182-.2462,1.42195-1.43074,2.52483-2.92429,2.52483-.35046,0-.6758-.09044-.98859-.20098-.14194.86422-.59918,1.59027-1.27875,2.08267.15324-.02261.29143-.09044.45094-.09044.56526,0,1.06772.19093,1.52621.45472.32031-1.26367,1.41441-2.21834,2.77731-2.21834.66953,0,1.25739.26379,1.7498.64314.29018-1.24609,1.35411-2.19321,2.68813-2.19321.83408,0,1.56264.37935,2.07765.95466.31403-1.15062,1.32271-2.01735,2.57382-2.01735.99738,0,1.83145.56526,2.30376,1.36668.25374-1.17574,1.24986-2.07514,2.50098-2.07514,1.44205,0,2.61024,1.16821,2.61024,2.61025,0,1.43953-1.16821,2.60774-2.61024,2.60774-.94588,0-1.73724-.53009-2.19447-1.28377-.24747,1.24609-1.29382,2.20326-2.61024,2.20326-.7851,0-1.47847-.34418-1.97466-.87678-.30901,1.21845-1.36292,2.13794-2.67683,2.13794-.62305,0-1.16821-.24118-1.63423-.58536-.27383,1.32899-1.39557,2.34647-2.8037,2.34647-.47607,0-.90694-.14069-1.30386-.34167-.29143,1.42195-1.49103,2.51227-2.99965,2.51227-.12688,0-.23489-.05779-.358-.07286.13441.3266.19218.68835.21355,1.05766.52003-.84412,1.41064-1.43703,2.47585-1.43703.68333,0,1.28252.26881,1.78371.65822.30901-1.21844,1.36165-2.13794,2.67557-2.13794.79514,0,1.50735.33664,2.01862.86673.30273-1.17323,1.32146-2.05755,2.59015-2.05755.99109,0,1.81889.55521,2.29622,1.34658.27258-1.16821,1.26994-2.05755,2.52107-2.05755,1.19083,0,2.1593.80393,2.4884,1.88923.15199-1.25865,1.1795-2.24848,2.47836-2.24848,1.40186,0,2.53865,1.13806,2.53865,2.53991s-1.1368,2.5374-2.53865,2.5374c-1.13554,0-2.06006-.7562-2.38541-1.78622-.15199,1.31392-1.22725,2.34897-2.58136,2.34897-.94965,0-1.74352-.53009-2.20828-1.28127-.2663,1.22348-1.30638,2.16055-2.60899,2.16055-.75243,0-1.43324-.30399-1.92566-.7989-.29897,1.23354-1.35915,2.16809-2.68311,2.16809-.61928,0-1.16193-.24118-1.62669-.58034-.29018,1.32899-1.41692,2.34395-2.8326,2.34395-.2462,0-.46603-.0829-.69591-.14069.12309.32912.2123.67831.2123,1.05013,0,1.01997-.53511,1.87918-1.30513,2.43188.13817-.0201.26128-.08038.40448-.08038.38564,0,.75117.08038,1.08656.21857-.08038-.25876-.1633-.52255-.1633-.80894,0-1.54254,1.24986-2.79112,2.79112-2.79112.81146,0,1.52621.35674,2.03619.90944.28137-1.19083,1.30261-2.09775,2.58136-2.09775.96848,0,1.77995.53763,2.25603,1.30386.23866-1.20087,1.2486-2.12538,2.52107-2.12538,1.21844,0,2.19824.84915,2.49092,1.97716.1143-1.29382,1.16946-2.32133,2.49469-2.32133,1.40186,0,2.53865,1.13554,2.53865,2.5374s-1.1368,2.53992-2.53865,2.53992c-1.17448,0-2.11909-.81398-2.40927-1.89677-.1143,1.34155-1.20589,2.40424-2.57634,2.40424-.92828,0-1.70583-.5125-2.17059-1.24106-.23364,1.25865-1.28377,2.22839-2.60648,2.22839-.7675,0-1.45335-.3266-1.9445-.84161-.2776,1.25111-1.3403,2.20578-2.67307,2.20578-.36554,0-.71097-.08038-1.0313-.20853.08919.27885.17461.56024.17461.86673,0,1.57771-1.28,2.85645-2.85771,2.85645-.71474,0-1.34909-.28891-1.84903-.72102-.12688.3065-.32533.56526-.53763.81398.86044.11305,1.57645.58286,2.03242,1.27373.39442-.99988,1.35788-1.71336,2.49971-1.71336.52882,0,.99361.19093,1.41064.45473-.08038-.25374-.15953-.50748-.15953-.78885,0-1.46214,1.18579-2.64793,2.64919-2.64793.98607,0,1.81136.56274,2.26733,1.36165.18088-1.24609,1.20966-2.21834,2.506-2.21834,1.21217,0,2.18065.85165,2.45575,1.97968.03894-1.35159,1.13303-2.4369,2.49217-2.4369,1.38301,0,2.50475,1.12047,2.50475,2.50475s-1.12173,2.50725-2.50475,2.50725c-1.17323,0-2.11157-.82404-2.38541-1.90933-.03894,1.3893-1.16444,2.50725-2.56252,2.50725-.9509,0-1.74728-.54015-2.19447-1.30638-.17461,1.29633-1.23856,2.30878-2.57886,2.30878-.51125,0-.9622-.1834-1.36668-.43462.08417.26128.16455.52757.16455.81648,0,1.48978-1.2084,2.69818-2.69818,2.69818-.90944,0-1.67317-.47984-2.16307-1.16821-.15576.45723-.39819.86171-.74112,1.18579,1.25865,0,2.27235.86673,2.59267,2.02489.22862-1.17574,1.21468-2.08015,2.457-2.08015.67203,0,1.27373.27133,1.72844.69591-.07788-.24368-.15324-.48988-.15324-.76122,0-1.38676,1.12424-2.50977,2.50977-2.50977,1.38676,0,2.50977,1.12299,2.50977,2.50977s-1.12299,2.50977-2.50977,2.50977c-.65697,0-1.24483-.2663-1.69202-.68083.0829.25124.15826.50748.15826.78635,0,1.40938-1.14183,2.54996-2.55121,2.54996-1.15439,0-2.09148-.77879-2.40675-1.83145-.1545.86171-.67831,1.58022-1.43828,1.96208.24997-.08038.50371-.15826.78006-.15826,1.42947,0,2.5889,1.16068,2.5889,2.59015s-1.15941,2.58765-2.5889,2.58765c-.54015,0-1.01495-.20349-1.42947-.48738-.07411.35925-.19093.68835-.37308.99486.61424.19595,1.12047.56526,1.50233,1.06772.30524-.99486,1.19585-1.73347,2.29118-1.73347,1.34407,0,2.43314,1.09033,2.43314,2.43439s-1.08907,2.43188-2.43314,2.43188c-.68083,0-1.29256-.28137-1.73347-.73106-.08417.43713-.24747.83156-.49617,1.18327.92075.20853,1.69453.80141,2.0563,1.65308.16203-1.10037,1.06897-1.95706,2.21207-1.95706,1.25739,0,2.27737,1.01997,2.27737,2.27863,0,1.25613-1.01997,2.27612-2.27737,2.27612-.89186,0-1.64554-.52757-2.01987-1.27373-.03015.46979-.18214.88934-.4095,1.27373.02386-.0025.04396-.01508.06783-.01508,1.51112,0,2.73586,1.22598,2.73586,2.73586,0,.41704-.10928.80392-.27635,1.15816.35046-.19344.73358-.33414,1.16318-.33414,1.35411,0,2.45198,1.09785,2.45198,2.45198h-.00002Zm-24.57379-85.0555c.22359-.04773.43462-.13566.67329-.13566.10426,0,.19218.05025.29395.06029-.07159-.2462-.14069-.49241-.15199-.75619-.21982.33162-.48865.60546-.81523.83156h-.00002Zm11.76497,37.96045c-.00127,0-.00127.0025-.0025.0025h.00377c-.00127,0-.00127-.0025-.00127-.0025Zm3.91537,26.80846c-.26881.08794-.54265.17084-.84036.17084-.41829,0-.80267-.10803-1.15691-.27635-.06155.29143-.12561.5728-.25626.83156.37685.14571.70972.35925,1.00491.62556.23364-.59541.68333-1.0652,1.2486-1.35159l.00002-.00002Zm-2.76978-4.52209c-.02135,0-.04021.01256-.06155.01256-.33289,0-.63937-.08794-.93707-.18842-.05025.2663-.07661.53763-.18465.77879.2123.08794.37685.2462.56401.37183.14069-.36679.34418-.70345.61928-.97476h-.00002Zm1.02501-10.97612c-.16203.02512-.30775.09547-.47733.09547-.55898,0-1.05389-.19093-1.50485-.45473-.08919.21103-.24997.37433-.3781.56274.57153.13567,1.10289.37433,1.50485.77879.20349-.39944.49994-.71851.85542-.9823v.00002Zm-4.92406-34.95325c-.09798,0-.18088-.04773-.2776-.05527.00127.02261.01382.04271.01382.06532,0,.86925-.35046,1.64051-.88557,2.24346.1608.01005.30524.06029.4585.09295.10175-1.12047.75243-2.05253,1.69955-2.54996-.32408.103-.65068.20349-1.00868.20349h-.00002Zm-2.48715-6.00433c-.10551,0-.1947-.05025-.2977-.06029.02261.15325.09044.28891.09044.44718,0,.20601-.08038.38438-.11682.57782.28514-.46728.66701-.84915,1.13806-1.12801-.26756.06783-.52505.1633-.81398.1633Zm-1.46339-6.23546c-.3266.11054-.66074.20601-1.02374.20601-.11555,0-.2123-.05527-.32533-.06532.07915.27886.17336.5527.17336.85668,0,.01759-.01006.03517-.01006.05276.31152-.43965.69968-.80644,1.18579-1.05013h-.00002Zm-3.58501-5.79079c-.13817,0-.255-.06281-.38815-.07788.15576.34167.23489.71851.25626,1.11294.57657-.90442,1.54128-1.53751,2.69316-1.53751.12436,0,.22987.05778.35046.07034-.05779-.24118-.14822-.47231-.14822-.73358,0-.26379.09044-.49994.15074-.74363-.49492,1.12047-1.61037,1.90933-2.91425,1.90932Zm25.4355,89.05756c-1.19333,0-2.1618.96974-2.1618,2.16307,0,1.19585.96848,2.16307,2.1618,2.16307,1.1946,0,2.16307-.96722,2.16307-2.16307,0-1.19333-.96848-2.16307-2.16307-2.16307Z"/>
    </g>
  </g>
</svg>