<svg xmlns="http://www.w3.org/2000/svg" viewBox="0 0 240 234">
	<defs>
		<style>.cls-1{fill:#001e36;}.cls-2{fill:#31a8ff;}</style>
	</defs>
	<title>Asset 180</title>
	<g id="Layer_2" data-name="Layer 2">
		<g id="Surfaces"><g id="Photo_Surface" data-name="Photo Surface">
			<g id="Outline_no_shadow" data-name="Outline no shadow"><rect class="cls-1" width="240" height="234" rx="42.5"/></g>
		</g>
	</g>
		<g id="Outlined_Mnemonics_Logos" data-name="Outlined Mnemonics &amp; Logos">
			<g id="LrC">
				<path class="cls-2" d="M84.192,165.3833H27.10131q-1.44954,0-1.44888-1.771V61.3772q0-1.44873,1.3043-1.449H44.63461c.67456,0,1.01425.37744,1.01425,1.1272v84.042H87.23519q1.30386,0,1.01426,1.449L85.6413,163.93433q-.14634.96606-.57964,1.20752A1.77863,1.77863,0,0,1,84.192,165.3833Z"/>
				<path class="cls-2" d="M98.53617,85.36621h15.79394q1.30386,0,1.8835,1.61011a8.35226,8.35226,0,0,1,.72466,2.2539,28.71923,28.71923,0,0,1,.43462,3.13965q.143,1.69044.145,3.62232a34.80174,34.80174,0,0,1,9.63589-8.61328,24.98991,24.98991,0,0,1,13.40332-3.62256q1.30385,0,1.30385,1.449v19.481q0,1.1283-1.44887,1.127a32.23561,32.23561,0,0,0-9.49087.72461,33.15877,33.15877,0,0,0-7.53487,2.6565,15.39786,15.39786,0,0,0-4.85419,3.70288v51.03711q0,1.44909-1.15928,1.449H99.84q-1.4502,0-1.44888-1.61011V108.3894q0-3.53979-.07251-7.48657-.07449-3.94335-.21753-7.80859a56.54581,56.54581,0,0,0-.5792-6.60083,1.35031,1.35031,0,0,1,.21709-.8855A1.0463,1.0463,0,0,1,98.53617,85.36621Z"/>
				<path class="cls-2" d="M212.62149,70.60112a25.83378,25.83378,0,0,0-6.67765-1.70558,75.39944,75.39944,0,0,0-10.19685-.58619c-9.80813,0-18.388,2.10233-25.50092,6.24858a42.56967,42.56967,0,0,0-16.555,17.51031c-3.85522,7.44733-5.81023,16.20145-5.81023,26.01991a63.596,63.596,0,0,0,2.24138,17.56717,46.1497,46.1497,0,0,0,6.353,13.67058,40.59588,40.59588,0,0,0,9.81019,9.9415,41.323,41.323,0,0,0,12.65638,6.03819,53.131,53.131,0,0,0,14.58865,1.98137,76.40988,76.40988,0,0,0,10.32505-.65856,32.8752,32.8752,0,0,0,8.05575-2.0005,2.55936,2.55936,0,0,0,1.4629-2.65854V147.05247a1.80324,1.80324,0,0,0-.50762-1.467c-.25019-.20729-.78056-.4549-1.56008.14267a28.74176,28.74176,0,0,1-6.96711,1.65984,78.829,78.829,0,0,1-8.72258.43008,30.76187,30.76187,0,0,1-7.84072-1.06279A29.61771,29.61771,0,0,1,180.1948,143.57a22.35682,22.35682,0,0,1-6.323-5.76526,28.55726,28.55726,0,0,1-4.38973-8.62954,38.36439,38.36439,0,0,1-1.59729-11.667,35.99278,35.99278,0,0,1,3.31762-15.99054,25.412,25.412,0,0,1,9.39562-10.5127,27.17413,27.17413,0,0,1,14.62793-3.8056,53.422,53.422,0,0,1,9.39355.78573,23.36188,23.36188,0,0,1,7.18113,2.3998,1.26058,1.26058,0,0,0,1.27991.00931,1.72374,1.72374,0,0,0,.60893-1.49443V72.96811A2.56436,2.56436,0,0,0,212.62149,70.60112Z"/>
			</g>
		</g>
	</g>
</svg>