<svg width="137" height="139" viewBox="0 0 137 139" fill="none" xmlns="http://www.w3.org/2000/svg">
<path d="M136.68 61.82C129.66 37.08 104.6 1.85 104.6 1.85C104.6 1.85 89.06 0 68.4 0C47.74 0 32.08 1.85 32.08 1.85C32.08 1.85 7.01 37.09 0 61.82C28.2 110.82 67.09 137.23 68.34 137.57C69.57 137.24 106.33 111.26 136.68 61.82Z" fill="#EB1000"/>
<path d="M66.19 77.7199L56.86 70.59C56.63 70.4 56.76 70.03 57.06 70.03H79.66C79.96 70.03 80.09 70.4 79.86 70.59L70.53 77.7199L73 84.95L91.05 88.12C91.21 88.15 91.36 88.05 91.41 87.9L105.92 37.4L84.5 51.97L85.37 68.06C85.39 68.42 84.88 68.53 84.76 68.18L75.94 43.09L106.06 32.77L90.59 24.2L68.37 31.78L45.97 24.2L30.64 32.76L60.8 43.09L51.98 68.18C51.86 68.52 51.35 68.42 51.37 68.06L52.24 51.97L30.8 37.38L45.34 87.88C45.38 88.03 45.54 88.13 45.7 88.1L63.72 84.93L66.19 77.7199Z" fill="white"/>
<path d="M53.93 90.95L57.76 101.03H78.92L82.75 90.95L68.34 88.7L53.93 90.95Z" fill="white"/>
<path d="M77.81 138.57C76.79 138.57 75.96 137.74 75.96 136.72C75.96 135.69 76.79 134.87 77.81 134.87C78.84 134.87 79.66 135.69 79.66 136.72C79.67 137.74 78.84 138.57 77.81 138.57ZM77.81 135.12C76.92 135.12 76.2 135.83 76.2 136.72C76.2 137.6 76.92 138.33 77.81 138.33C78.69 138.33 79.41 137.6 79.41 136.72C79.41 135.83 78.7 135.12 77.81 135.12ZM78.32 137.79L77.77 136.95H77.39V137.79H77.11V135.67H77.98C78.34 135.67 78.65 135.92 78.65 136.32C78.65 136.79 78.23 136.95 78.11 136.95L78.68 137.8H78.32V137.79ZM77.97 135.91H77.38V136.7H77.97C78.15 136.7 78.35 136.53 78.35 136.32C78.35 136.07 78.15 135.91 77.97 135.91Z" fill="#EB1000"/>
</svg>
