<?xml version="1.0" encoding="utf-8"?>
<!-- Generator: Adobe Illustrator 28.3.0, SVG Export Plug-In . SVG Version: 6.00 Build 0)  -->
<svg version="1.1" id="Layer_1" xmlns="http://www.w3.org/2000/svg" xmlns:xlink="http://www.w3.org/1999/xlink" x="0px" y="0px"
	 viewBox="0 0 18 18" style="enable-background:new 0 0 18 18;" xml:space="preserve">
<style type="text/css">
	.st0{fill:#464646;}
</style>
<path class="st0" d="M5.9,11.3l-2.1,3.8c-0.1,0.1,0,0.3,0.1,0.3c0.1,0,0.1,0,0.2,0l2-0.7c0.1,0,0.3,0,0.3,0.1l0.7,2
	c0,0.1,0.2,0.2,0.3,0.2c0.1,0,0.1-0.1,0.1-0.1l0.8-1.9l-1.5-3.2C6.6,11.7,6.2,11.5,5.9,11.3z M14.2,15.1l-1.9-3.9
	c-1.2,0.8-2.7,1.2-4.1,1l2.2,4.7c0.1,0.1,0.2,0.2,0.3,0.1c0.1,0,0.1-0.1,0.1-0.1l0.7-2c0-0.1,0.2-0.2,0.3-0.1l2,0.7
	c0.1,0,0.3,0,0.3-0.2C14.3,15.3,14.2,15.2,14.2,15.1z"/>
<path class="st0" d="M9,2C6.5,2,4.5,4,4.5,6.5S6.5,11,9,11s4.5-2,4.5-4.5S11.5,2,9,2z M9,9.2C7.5,9.2,6.2,8,6.2,6.5S7.5,3.8,9,3.8
	s2.8,1.2,2.8,2.8S10.5,9.2,9,9.2L9,9.2z"/>
</svg>
