<svg id="Layer_1" data-name="Layer 1" xmlns="http://www.w3.org/2000/svg" viewBox="0 0 512 512"><defs><style>.cls-1{fill:#fff;}.cls-2{fill:#a1cd41;}.cls-3{fill:#253219;}.cls-4{fill:#fdfdfc;}.cls-5{fill:#fdfdfd;}.cls-6{fill:#fcfcfb;}.cls-7{fill:#fbfbfa;}.cls-8{fill:#253319;}.cls-9{fill:#27341a;}.cls-10{fill:#27341b;}.cls-11{fill:#2f3b22;}</style></defs><path class="cls-1" d="M562,396q0,126.86,0,253.71c0,1.87-.42,2.29-2.29,2.29Q306,651.93,52.29,652c-1.87,0-2.29-.42-2.29-2.29Q50.08,396,50,142.29c0-1.87.42-2.29,2.29-2.29q253.71.08,507.42,0c1.87,0,2.29.42,2.29,2.29Q561.93,269.15,562,396Zm-448-2.91q0,93.51,0,187a62.09,62.09,0,0,0,.39,7.21A47.24,47.24,0,0,0,161,629H449.34a56.32,56.32,0,0,0,7.22-.45c23-3,40.94-23.1,40.95-46.26q.06-155.67,0-311.35a44.56,44.56,0,0,0-13.57-32.51c-11.37-11.34-22.85-22.56-34.3-33.83S426.79,182,415.22,170.86a45.81,45.81,0,0,0-32.67-13.3q-110.74-.1-221.47,0a43.57,43.57,0,0,0-10.61,1.33c-22.15,5.57-36.49,24-36.49,47Q114,299.46,114,393.09Z" transform="translate(-50 -140)"/><path class="cls-2" d="M114,393.09q0-93.63,0-187.26c0-23,14.34-41.41,36.49-47a43.57,43.57,0,0,1,10.61-1.33q110.73,0,221.47,0a45.81,45.81,0,0,1,32.67,13.3c11.57,11.14,22.94,22.47,34.39,33.73s22.93,22.49,34.3,33.83a44.56,44.56,0,0,1,13.57,32.51q.12,155.67,0,311.35c0,23.16-17.94,43.27-40.95,46.26a56.32,56.32,0,0,1-7.22.45H161a47.24,47.24,0,0,1-46.59-41.66,62.09,62.09,0,0,1-.39-7.21Q114,486.6,114,393.09Zm16,.16q0,93.64,0,187.28a33.37,33.37,0,0,0,.81,7.67c3.55,14.92,16.31,24.8,32,24.8H447.44a51.89,51.89,0,0,0,6.71-.42,31.4,31.4,0,0,0,27.4-31.12q0-154.83,0-309.64a30.33,30.33,0,0,0-5.41-17.55c-2.89-4.23-6.8-7.5-10.42-11.05Q434.92,213,404.14,182.67a31.13,31.13,0,0,0-22.48-9.15q-109.76,0-219.5,0A31.74,31.74,0,0,0,130,205.72Z" transform="translate(-50 -140)"/><path class="cls-3" d="M130,393.25V205.72a31.74,31.74,0,0,1,32.21-32.21q109.76,0,219.5,0a31.13,31.13,0,0,1,22.48,9.15q30.83,30.24,61.59,60.55c3.62,3.55,7.53,6.82,10.42,11.05a30.33,30.33,0,0,1,5.41,17.55q0,154.82,0,309.64a31.4,31.4,0,0,1-27.4,31.12,51.89,51.89,0,0,1-6.71.42H162.78c-15.72,0-28.48-9.88-32-24.8a33.37,33.37,0,0,1-.81-7.67Q130,486.9,130,393.25Zm262.28-61.52a86.64,86.64,0,1,0-86.56,86.72A86.42,86.42,0,0,0,392.23,331.73Zm-163,194.69c0,10.72,0,21.45,0,32.18,0,1.82.43,2.47,2.35,2.43,5.57-.1,11.14.06,16.71,0a31.45,31.45,0,0,0,12.1-2.46c7-2.94,11.41-8,12.27-15.61s-1.24-14.18-8.05-18.53c-1.65-1.05-.36-1.54.2-2.16,7.57-8.39,6.68-26.46-9.68-29.79-7.83-1.6-15.73-.65-23.6-.68-1.88,0-2.32.59-2.31,2.43C229.33,505,229.28,515.69,229.28,526.42Zm159.81-.07c0,10.82.05,21.63,0,32.45,0,1.88.47,2.45,2.34,2.3a48.76,48.76,0,0,1,6.73,0c1.63.11,2.08-.39,2.06-2-.09-7.57,0-15.14,0-22.72,0-3.25,0-3,3.25-3.32s4.62.92,6,3.65c3.76,7.55,7.91,14.91,11.82,22.39a3.25,3.25,0,0,0,3.5,2c2.57-.16,5.15,0,7.73,0,2.78,0,2.83-.06,1.5-2.5-4.81-8.79-9.56-17.6-14.5-26.32-1.06-1.87-.71-2.41,1.08-3.31,7.64-3.83,11.56-11.54,10.56-20.26-.95-8.26-6.07-14-14.76-16-8.53-2-17.2-.88-25.82-.8-1.84,0-1.36,1.31-1.36,2.28Q389.08,510.26,389.09,526.35Zm-36.68-34.57v-.14c-1.91,0-3.82,0-5.74,0-.82,0-1.45.1-1.52,1.15-.37,6-2.68,11.59-4.27,17.32q-6.81,24.39-13.85,48.71c-.51,1.77-.37,2.4,1.62,2.28a58.12,58.12,0,0,1,6.73,0c1.5.08,2.17-.34,2.55-1.9,1.3-5.31,2.88-10.54,4.17-15.85.36-1.49,1-1.8,2.36-1.78,5.41.06,10.82.1,16.22,0,1.6,0,2.11.61,2.46,2,1.41,5.28,2.92,10.52,4.29,15.81.36,1.37.93,1.88,2.38,1.81a69.13,69.13,0,0,1,7.48,0c2.1.12,2.68-.25,2-2.55-6-20-11.85-40.14-17.77-60.21-.65-2.2-.79-5.25-2.3-6.31S354.73,491.78,352.41,491.78ZM178.84,552.86a12.92,12.92,0,0,1,0,2.49c-.57,2.85,1,3.95,3.39,4.76a37.22,37.22,0,0,0,16.46,1.79c7.56-.85,13.91-3.91,17.16-11.37a20.2,20.2,0,0,0-5.66-23.68,48.42,48.42,0,0,0-8.72-5.73,43.34,43.34,0,0,1-8-5c-2.83-2.38-4.31-5.34-3.32-9,1-3.84,4-5.57,7.74-6a24.78,24.78,0,0,1,14.52,2.34c1.41.73,2,.46,1.94-1.15a65.67,65.67,0,0,1,0-6.73c.17-2-.67-2.87-2.39-3.44a35.78,35.78,0,0,0-14.52-1.45c-8,.71-14.56,4-17.32,12s-1.54,15.41,4.72,21.57a39.9,39.9,0,0,0,9.82,6.7,33,33,0,0,1,7.82,5.26c2.95,2.83,4.36,6.15,2.78,10.1s-5,5.08-8.84,5.28a25.77,25.77,0,0,1-15.66-3.93c-1.61-1-2-.46-1.92,1.17C178.89,550.2,178.84,551.53,178.84,552.86Zm102.38-.26a16.07,16.07,0,0,1,0,2.82c-.5,2.69.89,3.85,3.22,4.65a37.64,37.64,0,0,0,16.45,1.85c7.65-.83,14.09-3.87,17.36-11.45a20.2,20.2,0,0,0-5.73-23.67,53.29,53.29,0,0,0-9.83-6.29,35.13,35.13,0,0,1-6.91-4.39c-2.82-2.39-4.27-5.36-3.24-9s4.06-5.51,7.78-5.95a24.46,24.46,0,0,1,14.29,2.27c1.82.93,2.15.29,2.1-1.4a53.86,53.86,0,0,1,0-6.48c.19-2-.79-2.82-2.46-3.38a35.47,35.47,0,0,0-14.53-1.43c-7.47.65-13.78,3.65-16.81,10.93s-2.48,14.32,2.48,20.67c3,3.87,7.17,6.36,11.47,8.59a30.55,30.55,0,0,1,8.89,6.29c4.59,5,2.69,12.13-3.88,13.9-5.33,1.42-10.51.37-15.57-1.61-1.66-.65-3.44-3-4.68-2S281.4,551,281.22,552.6Z" transform="translate(-50 -140)"/><path class="cls-2" d="M392.23,331.73a86.64,86.64,0,1,1-85.39-86.62A86.28,86.28,0,0,1,392.23,331.73ZM278.89,267.41a4.39,4.39,0,0,0-3.08.79,51.68,51.68,0,0,0-10.49,8c-12,12-19.41,26.53-23.59,42.86-.6,2.38,0,3.72,2.05,4.86,8.53,4.64,17,9.38,25.51,14.08,4.68,2.58,5.19,3.64,6.83-2.95A101.25,101.25,0,0,1,305.34,285c2-1.93,2-2.93-.37-4.15q-12.36-6.46-24.74-12.86A10.17,10.17,0,0,0,278.89,267.41Z" transform="translate(-50 -140)"/><path class="cls-4" d="M229.28,526.42c0-10.73.05-21.46-.05-32.18,0-1.84.43-2.44,2.31-2.43,7.87,0,15.77-.92,23.6.68,16.36,3.33,17.25,21.4,9.68,29.79-.56.62-1.85,1.11-.2,2.16,6.81,4.35,8.9,10.94,8.05,18.53s-5.31,12.67-12.27,15.61A31.45,31.45,0,0,1,248.3,561c-5.57.05-11.14-.11-16.71,0-1.92,0-2.36-.61-2.35-2.43C229.32,547.87,229.28,537.14,229.28,526.42Zm11.05,13.78c0,3.08,0,6.16,0,9.24,0,.63-.44,1.62.86,1.63,4.47,0,9,.56,13.3-1.15a10.17,10.17,0,0,0-.68-19.34c-4-1.29-8.22-.91-12.36-1-1.13,0-1.15.56-1.14,1.39C240.34,534.05,240.33,537.13,240.33,540.2Zm0-29.5c0,2.41.08,4.83,0,7.23-.07,1.45.43,1.8,1.82,1.78a66.55,66.55,0,0,1,11.2.35,1.6,1.6,0,0,0,1.61-.36,12,12,0,0,0,3.22-10.32,8.37,8.37,0,0,0-6.37-7.19c-3.42-1-6.94-.48-10.42-.52-1.2,0-1,.81-1,1.54C240.32,505.7,240.33,508.2,240.33,510.7Z" transform="translate(-50 -140)"/><path class="cls-5" d="M389.09,526.35q0-16.1,0-32.2c0-1-.48-2.26,1.36-2.28,8.62-.08,17.29-1.18,25.82.8,8.69,2,13.81,7.74,14.76,16,1,8.72-2.92,16.43-10.56,20.26-1.79.9-2.14,1.44-1.08,3.31,4.94,8.72,9.69,17.53,14.5,26.32,1.33,2.44,1.28,2.49-1.5,2.5-2.58,0-5.16-.12-7.73,0a3.25,3.25,0,0,1-3.5-2c-3.91-7.48-8.06-14.84-11.82-22.39-1.35-2.73-2.84-4-6-3.65s-3.25.07-3.25,3.32c0,7.58-.05,15.15,0,22.72,0,1.64-.43,2.14-2.06,2a48.76,48.76,0,0,0-6.73,0c-1.87.15-2.36-.42-2.34-2.3C389.14,548,389.09,537.17,389.09,526.35Zm11.05-13.78c0,3,0,6,0,9,0,.86-.11,1.62,1.21,1.59,3.4-.09,6.81.16,10.17-.58a9.71,9.71,0,0,0,8.1-9.65c.18-5.32-2.37-9-7.29-10.5-3.57-1.11-7.23-.71-10.87-.67-1.07,0-1.35.6-1.33,1.62C400.18,506.42,400.14,509.5,400.14,512.57Z" transform="translate(-50 -140)"/><path class="cls-6" d="M352.41,491.78c2.32,0,5.24-.86,6.79.24s1.65,4.11,2.3,6.31c5.92,20.07,11.78,40.16,17.77,60.21.69,2.3.11,2.67-2,2.55a69.13,69.13,0,0,0-7.48,0c-1.45.07-2-.44-2.38-1.81-1.37-5.29-2.88-10.53-4.29-15.81-.35-1.34-.86-2-2.46-2-5.4.13-10.81.09-16.22,0-1.37,0-2,.29-2.36,1.78-1.29,5.31-2.87,10.54-4.17,15.85-.38,1.56-1.05,2-2.55,1.9a58.12,58.12,0,0,0-6.73,0c-2,.12-2.13-.51-1.62-2.28q7-24.33,13.85-48.71c1.59-5.73,3.9-11.29,4.27-17.32.07-1,.7-1.16,1.52-1.15,1.92,0,3.83,0,5.74,0Zm.07,10.32c-.26,1.23-.4,1.93-.56,2.62q-2.69,12.25-6.11,24.33c-.5,1.8-.29,2.47,1.81,2.36,3.48-.18,7-.11,10.48,0,1.57.05,1.84-.52,1.47-1.9-1-3.75-2-7.53-3-11.29C355.27,513,353.94,507.8,352.48,502.1Z" transform="translate(-50 -140)"/><path class="cls-7" d="M178.84,552.86c0-1.33,0-2.66,0-4-.07-1.63.31-2.21,1.92-1.17a25.77,25.77,0,0,0,15.66,3.93c3.87-.2,7.28-1.39,8.84-5.28s.17-7.27-2.78-10.1a33,33,0,0,0-7.82-5.26,39.9,39.9,0,0,1-9.82-6.7c-6.26-6.16-7.46-13.63-4.72-21.57s9.33-11.31,17.32-12a35.78,35.78,0,0,1,14.52,1.45c1.72.57,2.56,1.48,2.39,3.44a65.67,65.67,0,0,0,0,6.73c0,1.61-.53,1.88-1.94,1.15a24.78,24.78,0,0,0-14.52-2.34c-3.73.45-6.7,2.18-7.74,6-1,3.67.49,6.63,3.32,9a43.34,43.34,0,0,0,8,5,48.42,48.42,0,0,1,8.72,5.73,20.2,20.2,0,0,1,5.66,23.68c-3.25,7.46-9.6,10.52-17.16,11.37a37.22,37.22,0,0,1-16.46-1.79c-2.36-.81-4-1.91-3.39-4.76A12.92,12.92,0,0,0,178.84,552.86Z" transform="translate(-50 -140)"/><path class="cls-7" d="M281.22,552.6c.18-1.56-.85-4.2.41-5.14s3,1.37,4.68,2c5.06,2,10.24,3,15.57,1.61,6.57-1.77,8.47-8.85,3.88-13.9a30.55,30.55,0,0,0-8.89-6.29c-4.3-2.23-8.44-4.72-11.47-8.59-5-6.35-5.48-13.47-2.48-20.67s9.34-10.28,16.81-10.93a35.47,35.47,0,0,1,14.53,1.43c1.67.56,2.65,1.37,2.46,3.38a53.86,53.86,0,0,0,0,6.48c.05,1.69-.28,2.33-2.1,1.4a24.46,24.46,0,0,0-14.29-2.27c-3.72.44-6.71,2.12-7.78,5.95s.42,6.65,3.24,9a35.13,35.13,0,0,0,6.91,4.39,53.29,53.29,0,0,1,9.83,6.29,20.2,20.2,0,0,1,5.73,23.67c-3.27,7.58-9.71,10.62-17.36,11.45a37.64,37.64,0,0,1-16.45-1.85c-2.33-.8-3.72-2-3.22-4.65A16.07,16.07,0,0,0,281.22,552.6Z" transform="translate(-50 -140)"/><path class="cls-8" d="M278.89,267.41a10.17,10.17,0,0,1,1.34.54q12.38,6.42,24.74,12.86c2.32,1.22,2.41,2.22.37,4.15A101.25,101.25,0,0,0,276.12,335c-1.64,6.59-2.15,5.53-6.83,2.95-8.5-4.7-17-9.44-25.51-14.08-2.09-1.14-2.65-2.48-2.05-4.86,4.18-16.33,11.56-30.87,23.59-42.86a51.68,51.68,0,0,1,10.49-8A4.39,4.39,0,0,1,278.89,267.41Z" transform="translate(-50 -140)"/><path class="cls-9" d="M240.33,540.2c0-3.07,0-6.15,0-9.23,0-.83,0-1.42,1.14-1.39,4.14.09,8.31-.29,12.36,1a10.17,10.17,0,0,1,.68,19.34c-4.32,1.71-8.83,1.19-13.3,1.15-1.3,0-.85-1-.86-1.63C240.3,546.36,240.33,543.28,240.33,540.2Z" transform="translate(-50 -140)"/><path class="cls-10" d="M240.33,510.7c0-2.5,0-5,0-7.49,0-.73-.18-1.55,1-1.54,3.48,0,7-.51,10.42.52a8.37,8.37,0,0,1,6.37,7.19,12,12,0,0,1-3.22,10.32,1.6,1.6,0,0,1-1.61.36,66.55,66.55,0,0,0-11.2-.35c-1.39,0-1.89-.33-1.82-1.78C240.41,515.53,240.33,513.11,240.33,510.7Z" transform="translate(-50 -140)"/><path class="cls-9" d="M400.14,512.57c0-3.07,0-6.15,0-9.22,0-1,.26-1.6,1.33-1.62,3.64,0,7.3-.44,10.87.67,4.92,1.52,7.47,5.18,7.29,10.5a9.71,9.71,0,0,1-8.1,9.65c-3.36.74-6.77.49-10.17.58-1.32,0-1.21-.73-1.21-1.59C400.15,518.55,400.14,515.56,400.14,512.57Z" transform="translate(-50 -140)"/><path class="cls-11" d="M352.48,502.1c1.46,5.7,2.79,10.9,4.13,16.1,1,3.76,1.94,7.54,3,11.29.37,1.38.1,2-1.47,1.9-3.49-.09-7-.16-10.48,0-2.1.11-2.31-.56-1.81-2.36q3.4-12.07,6.11-24.33C352.08,504,352.22,503.33,352.48,502.1Z" transform="translate(-50 -140)"/></svg>