<svg xmlns="http://www.w3.org/2000/svg" width="10" height="10" viewBox="0 0 10 10">
  <g id="ChevronSize100">
    <rect id="Frame" width="10" height="10" fill="red" opacity="0"/>
    <path d="M7.96423,5.18384A.87628.87628,0,0,0,7.999,5a.88.88,0,0,0-.03467-.18384.85473.85473,0,0,0-.02887-.14386.88334.88334,0,0,0-.12432-.18951.82653.82653,0,0,0-.064-.09754L7.7442,4.3833l-.004-.00586L3.61475.30225a.87492.87492,0,1,0-1.2295,1.24511L5.88007,5,2.38525,8.45264a.87492.87492,0,1,0,1.2295,1.24511L7.74023,5.62256l.004-.00586.00287-.00195a.81976.81976,0,0,0,.064-.0976.88482.88482,0,0,0,.12432-.18951A.85511.85511,0,0,0,7.96423,5.18384Z"/>
  </g>
</svg>
