<svg xmlns="http://www.w3.org/2000/svg" viewBox="0 0 240 234">
	<defs>
		<style>
			.cls-1{fill:#00005b;}
			.cls-2{fill:#99f;}
		</style>
	</defs>
	<g id="Layer_2" data-name="Layer 2">
		<g id="Surfaces">
			<g id="Video_Audio_Surface" data-name="Video/Audio Surface">
				<g id="Outline_no_shadow" data-name="Outline no shadow">
					<rect class="cls-1" width="240" height="234" rx="42.5"/>
				</g>
			</g>
		</g>
		<g id="Outlined_Mnemonics_Logos" data-name="Outlined Mnemonics &amp; Logos">
			<g id="Ae">
				<path class="cls-2" d="M96.415,140H59.22363l-7.56689,23.551A1.89358,1.89358,0,0,1,49.72461,165H30.8877q-1.61133,0-1.127-1.771l32.2002-92.35278c.32177-.96582.644-1.91007.96582-3.14543a34.395,34.395,0,0,0,.644-6.52026.99662.99662,0,0,1,1.127-1.1272H90.29688q1.12426,0,1.28808.80518l36.54688,102.50138q.48265,1.61133-.96582,1.61011H106.23584a1.48791,1.48791,0,0,1-1.60986-1.12695ZM65.02,120.14233H90.458q-.96608-3.21863-2.2544-7.24511-1.29053-4.02246-2.73681-8.61353-1.44873-4.58826-2.898-9.177-1.44873-4.58826-2.65674-8.855-1.207-4.26379-2.17334-7.80835h-.16113a129.83806,129.83806,0,0,1-3.38086,12.87988q-2.2566,7.24512-4.58838,14.812Q67.27271,113.70484,65.02,120.14233Z"/>
				<path class="cls-2" d="M187.38086,130.83333h-31.7168a22.61786,22.61786,0,0,0,3.05908,8.87053,16.56442,16.56442,0,0,0,7.3252,6.03735,30.58935,30.58935,0,0,0,12.7998,2.50879,58.00276,58.00276,0,0,0,10.38428-1.14014,38.2738,38.2738,0,0,0,8.92827-2.32743c.53564-.42749.80517-.16089.80517.80518v15.29492a2.38438,2.38438,0,0,1-.2417,1.20752,2.30979,2.30979,0,0,1-.72461.72436,40.94371,40.94371,0,0,1-9.97465,2.97148,70.76093,70.76093,0,0,1-14.168,1.20752q-11.43383,0-19.15918-3.542a34.14667,34.14667,0,0,1-12.55761-9.499,37.19747,37.19747,0,0,1-6.92334-13.12158,51.6676,51.6676,0,0,1-2.09278-14.57056,50.74576,50.74576,0,0,1,2.49561-15.85839A41.42461,41.42461,0,0,1,143.106,96.7168a35.9638,35.9638,0,0,1,12.07519-9.499c4.72168-2.30688,10.30371-3.13444,16.74365-3.13444a36.33458,36.33458,0,0,1,15.53663,3.05884,27.38213,27.38213,0,0,1,10.54541,7.96452,36.61555,36.61555,0,0,1,5.957,11.35059,40.448,40.448,0,0,1,1.93213,12.23608q0,3.54309-.2417,6.43994-.241,2.89784-.40235,4.186a1.45875,1.45875,0,0,1-1.44922,1.28808q-.96606,0-3.30029.24146-2.3357.24133-5.7959.322C192.397,131.22607,189.957,130.83333,187.38086,130.83333Zm-31.7168-14.66666h21.09082q3.86425,0,5.71533-.08057a5.62421,5.62421,0,0,0,2.335-.77384v-.96607a12.8804,12.8804,0,0,0-.644-3.70288,13.15261,13.15261,0,0,0-13.041-9.177,13.9859,13.9859,0,0,0-13.28272,7.56689A23.28917,23.28917,0,0,0,155.66406,116.16667Z"/>
			</g>
		</g>
	</g>
</svg>