<svg xmlns="http://www.w3.org/2000/svg" width="376.858" height="46.11" viewBox="0 0 376.858 46.11"><defs><style>.a{fill:#fff;}.b{fill:#00a5cb;}.c{fill:#008eba;}.d{fill:#36c1da;}.e{fill:#f17c22;}.f{fill:#e66024;}.g{fill:#f7972a;}.h{fill:#1d66b0;}.i{fill:#13509f;}.j{fill:#177ebc;}</style></defs><g transform="translate(60.783 10.648)"><path class="a" d="M95.983,31.259a8.775,8.775,0,0,0,.319,2.473,21.7,21.7,0,0,0,.878,1.994.86.86,0,0,1,.16.638.961.961,0,0,1-.558.8l-1.675,1.117a1.287,1.287,0,0,1-.718.239.982.982,0,0,1-.8-.4,4.867,4.867,0,0,1-.957-1.276c-.239-.479-.558-1.037-.878-1.675A10.286,10.286,0,0,1,83.7,39,7.492,7.492,0,0,1,78.193,37,7.27,7.27,0,0,1,76.2,31.738a6.983,6.983,0,0,1,2.393-5.584A10.228,10.228,0,0,1,85.293,24a17.44,17.44,0,0,1,2.872.239c1.037.16,2.074.319,3.111.558V22.8A6.1,6.1,0,0,0,90,18.415a6.413,6.413,0,0,0-4.467-1.276,12.512,12.512,0,0,0-2.952.4,18.229,18.229,0,0,0-2.952.957c-.319.16-.638.239-.957.4h-.4c-.4,0-.558-.319-.558-.878V16.74a4,4,0,0,1,.16-.957,1.823,1.823,0,0,1,.8-.558,17.76,17.76,0,0,1,3.43-1.276,18.722,18.722,0,0,1,4.308-.558,9.825,9.825,0,0,1,7.18,2.234A9.172,9.172,0,0,1,95.9,22.4v8.855ZM84.814,35.487a9.035,9.035,0,0,0,2.872-.479,5.272,5.272,0,0,0,2.553-1.755,5.738,5.738,0,0,0,.957-1.675,12.175,12.175,0,0,0,.239-2.393V28.068c-.8-.16-1.675-.319-2.553-.479-.878-.08-1.675-.16-2.553-.16a6.694,6.694,0,0,0-4.069,1.117,3.772,3.772,0,0,0-1.276,3.031,3.78,3.78,0,0,0,1.037,2.872A3.918,3.918,0,0,0,84.814,35.487Zm22.018,2.952A2.208,2.208,0,0,1,105.8,38.2a1.906,1.906,0,0,1-.558-1.037l-6.382-21.22a2.548,2.548,0,0,1-.239-1.117.511.511,0,0,1,.479-.638h2.872a2.208,2.208,0,0,1,1.037.239,2.627,2.627,0,0,1,.558,1.037l4.627,18.109,4.228-18.109a1.668,1.668,0,0,1,.558-1.037,1.384,1.384,0,0,1,1.117-.239h2.234a2.548,2.548,0,0,1,1.117.239A1.906,1.906,0,0,1,118,15.464l4.308,18.348L127.1,15.464a2.177,2.177,0,0,1,.558-1.037,1.27,1.27,0,0,1,1.037-.239h2.553a.511.511,0,0,1,.638.479v.558c-.08.239-.08.479-.16.638L125.1,37.083a2.177,2.177,0,0,1-.558,1.037,1.27,1.27,0,0,1-1.037.239h-2.393A1.43,1.43,0,0,1,120,38.04a2.127,2.127,0,0,1-.558-1.117l-4.308-17.63L110.821,37a2.127,2.127,0,0,1-.558,1.117,1.832,1.832,0,0,1-1.117.319Zm35.181.718a18.57,18.57,0,0,1-4.228-.479,11.694,11.694,0,0,1-3.191-1.117,1.636,1.636,0,0,1-1.037-1.516V34.61c0-.558.239-.878.638-.878a1.012,1.012,0,0,1,.479.08l.718.319a19.155,19.155,0,0,0,3.031.957,15.158,15.158,0,0,0,3.271.319,7.7,7.7,0,0,0,3.989-.878,3.048,3.048,0,0,0,1.436-2.553,2.717,2.717,0,0,0-.718-1.915,6.522,6.522,0,0,0-2.872-1.436L139.54,27.35a8.641,8.641,0,0,1-4.308-2.792,6.632,6.632,0,0,1-.638-7.02,6.717,6.717,0,0,1,1.994-2.234,9.278,9.278,0,0,1,2.792-1.436,12.711,12.711,0,0,1,3.43-.479,14.122,14.122,0,0,1,1.835.08,11.444,11.444,0,0,1,1.755.319c.558.16,1.117.239,1.6.4.4.16.8.319,1.117.479a3.124,3.124,0,0,1,.8.638,1.609,1.609,0,0,1,.239.878v1.276c0,.558-.239.878-.638.878a3.949,3.949,0,0,1-1.037-.319,11.952,11.952,0,0,0-5.265-1.037,7.273,7.273,0,0,0-3.67.8,2.54,2.54,0,0,0-1.276,2.473,2.474,2.474,0,0,0,.8,1.915,8.342,8.342,0,0,0,3.031,1.516l3.909,1.2a8.145,8.145,0,0,1,4.228,2.633,5.983,5.983,0,0,1,1.276,3.989,7.2,7.2,0,0,1-.718,3.191,7.282,7.282,0,0,1-1.994,2.393,8.342,8.342,0,0,1-3.031,1.516A11.212,11.212,0,0,1,142.013,39.157Z" transform="translate(-76.192 -13.348)"/><path class="a" d="M95.983,31.259a8.775,8.775,0,0,0,.319,2.473,21.7,21.7,0,0,0,.878,1.994.86.86,0,0,1,.16.638.961.961,0,0,1-.558.8l-1.675,1.117a1.287,1.287,0,0,1-.718.239.982.982,0,0,1-.8-.4,4.867,4.867,0,0,1-.957-1.276c-.239-.479-.558-1.037-.878-1.675A10.286,10.286,0,0,1,83.7,39,7.492,7.492,0,0,1,78.193,37,7.27,7.27,0,0,1,76.2,31.738a6.983,6.983,0,0,1,2.393-5.584A10.228,10.228,0,0,1,85.293,24a17.44,17.44,0,0,1,2.872.239c1.037.16,2.074.319,3.111.558V22.8A6.1,6.1,0,0,0,90,18.415a6.413,6.413,0,0,0-4.467-1.276,12.512,12.512,0,0,0-2.952.4,18.229,18.229,0,0,0-2.952.957c-.319.16-.638.239-.957.4h-.4c-.4,0-.558-.319-.558-.878V16.74a4,4,0,0,1,.16-.957,1.823,1.823,0,0,1,.8-.558,17.76,17.76,0,0,1,3.43-1.276,18.722,18.722,0,0,1,4.308-.558,9.825,9.825,0,0,1,7.18,2.234A9.172,9.172,0,0,1,95.9,22.4v8.855ZM84.814,35.487a9.035,9.035,0,0,0,2.872-.479,5.272,5.272,0,0,0,2.553-1.755,5.738,5.738,0,0,0,.957-1.675,12.175,12.175,0,0,0,.239-2.393V28.068c-.8-.16-1.675-.319-2.553-.479-.878-.08-1.675-.16-2.553-.16a6.694,6.694,0,0,0-4.069,1.117,3.772,3.772,0,0,0-1.276,3.031,3.78,3.78,0,0,0,1.037,2.872A3.918,3.918,0,0,0,84.814,35.487Zm22.018,2.952A2.208,2.208,0,0,1,105.8,38.2a1.906,1.906,0,0,1-.558-1.037l-6.382-21.22a2.548,2.548,0,0,1-.239-1.117.511.511,0,0,1,.479-.638h2.872a2.208,2.208,0,0,1,1.037.239,2.627,2.627,0,0,1,.558,1.037l4.627,18.109,4.228-18.109a1.668,1.668,0,0,1,.558-1.037,1.384,1.384,0,0,1,1.117-.239h2.234a2.548,2.548,0,0,1,1.117.239A1.906,1.906,0,0,1,118,15.464l4.308,18.348L127.1,15.464a2.177,2.177,0,0,1,.558-1.037,1.27,1.27,0,0,1,1.037-.239h2.553a.511.511,0,0,1,.638.479v.558c-.08.239-.08.479-.16.638L125.1,37.083a2.177,2.177,0,0,1-.558,1.037,1.27,1.27,0,0,1-1.037.239h-2.393A1.43,1.43,0,0,1,120,38.04a2.127,2.127,0,0,1-.558-1.117l-4.308-17.63L110.821,37a2.127,2.127,0,0,1-.558,1.117,1.832,1.832,0,0,1-1.117.319Zm35.181.718a18.57,18.57,0,0,1-4.228-.479,11.694,11.694,0,0,1-3.191-1.117,1.636,1.636,0,0,1-1.037-1.516V34.61c0-.558.239-.878.638-.878a1.012,1.012,0,0,1,.479.08l.718.319a19.155,19.155,0,0,0,3.031.957,15.158,15.158,0,0,0,3.271.319,7.7,7.7,0,0,0,3.989-.878,3.048,3.048,0,0,0,1.436-2.553,2.717,2.717,0,0,0-.718-1.915,6.522,6.522,0,0,0-2.872-1.436L139.54,27.35a8.641,8.641,0,0,1-4.308-2.792,6.632,6.632,0,0,1-.638-7.02,6.717,6.717,0,0,1,1.994-2.234,9.278,9.278,0,0,1,2.792-1.436,12.711,12.711,0,0,1,3.43-.479,14.122,14.122,0,0,1,1.835.08,11.444,11.444,0,0,1,1.755.319c.558.16,1.117.239,1.6.4.4.16.8.319,1.117.479a3.124,3.124,0,0,1,.8.638,1.609,1.609,0,0,1,.239.878v1.276c0,.558-.239.878-.638.878a3.949,3.949,0,0,1-1.037-.319,11.952,11.952,0,0,0-5.265-1.037,7.273,7.273,0,0,0-3.67.8,2.54,2.54,0,0,0-1.276,2.473,2.474,2.474,0,0,0,.8,1.915,8.342,8.342,0,0,0,3.031,1.516l3.909,1.2a8.145,8.145,0,0,1,4.228,2.633,5.983,5.983,0,0,1,1.276,3.989,7.2,7.2,0,0,1-.718,3.191,7.282,7.282,0,0,1-1.994,2.393,8.342,8.342,0,0,1-3.031,1.516A11.212,11.212,0,0,1,142.013,39.157Z" transform="translate(-76.192 -13.348)"/></g><g transform="translate(147.744 0)"><path class="a" d="M185.918,38.709a.635.635,0,0,1-.718-.718V15.016a.635.635,0,0,1,.718-.718h.878a.733.733,0,0,1,.8.718l.16,1.915a17.038,17.038,0,0,1,4.308-2.553,11.04,11.04,0,0,1,4.388-.878,5.513,5.513,0,0,1,5.664,3.749,17.063,17.063,0,0,1,4.547-2.792,12.8,12.8,0,0,1,4.786-.957,6.02,6.02,0,0,1,4.787,1.915c1.117,1.276,1.6,3.111,1.6,5.5V37.991a.635.635,0,0,1-.718.718h-1.276a.635.635,0,0,1-.718-.718V22.116a7.945,7.945,0,0,0-1.037-4.627,3.761,3.761,0,0,0-3.271-1.436,13.433,13.433,0,0,0-8.217,3.031,22.543,22.543,0,0,1,.16,2.313V37.991a.635.635,0,0,1-.718.718h-1.2a.635.635,0,0,1-.718-.718V22.116a7.944,7.944,0,0,0-1.037-4.627,3.761,3.761,0,0,0-3.271-1.436A12.9,12.9,0,0,0,187.753,19V37.991a.635.635,0,0,1-.718.718h-1.117Z" transform="translate(-185.2 -2.73)"/><path class="a" d="M238.481,39.267a6.49,6.49,0,0,1-4.946-1.915,7.276,7.276,0,0,1-1.835-5.106,7.048,7.048,0,0,1,2.234-5.584,8.937,8.937,0,0,1,6.143-2.074,22.015,22.015,0,0,1,6.462,1.117V21.637c0-1.994-.4-3.43-1.276-4.228-.878-.878-2.313-1.276-4.308-1.276a20.805,20.805,0,0,0-6.621,1.2,2.33,2.33,0,0,1-.718.16c-.319,0-.479-.239-.479-.638v-.8a1.5,1.5,0,0,1,.16-.638c.08-.16.239-.239.479-.4a18.645,18.645,0,0,1,7.579-1.516c2.712,0,4.627.638,5.9,1.835a7.134,7.134,0,0,1,1.915,5.425V37.991a.635.635,0,0,1-.718.718H247.5a.635.635,0,0,1-.718-.718l-.159-2.074A12.5,12.5,0,0,1,238.481,39.267Zm.319-2.553A10.671,10.671,0,0,0,242.47,36a16.32,16.32,0,0,0,3.989-2.154V27.78a22.054,22.054,0,0,0-5.9-.878c-4.228,0-6.3,1.755-6.3,5.265a4.922,4.922,0,0,0,1.117,3.43A5.211,5.211,0,0,0,238.8,36.715Z" transform="translate(-194.605 -2.73)"/><path class="a" d="M261.818,38.851a.635.635,0,0,1-.718-.718V15.157a.635.635,0,0,1,.718-.718h.878a.733.733,0,0,1,.8.718l.239,2.792a10.749,10.749,0,0,1,3.35-2.872,8.124,8.124,0,0,1,3.749-.878,5.282,5.282,0,0,1,1.2.08c.479,0,.718.319.718.8v1.2c0,.16-.08.239-.16.4a.609.609,0,0,1-.4.16h-1.675a7.767,7.767,0,0,0-3.67.8,10.518,10.518,0,0,0-3.111,2.712v17.87a.635.635,0,0,1-.718.718h-1.2Z" transform="translate(-200.551 -2.872)"/><path class="a" d="M280.918,35.979a.635.635,0,0,1-.718-.718V.718A.635.635,0,0,1,280.918,0h1.2a.635.635,0,0,1,.718.718v21.7l10.849-10.371a1.575,1.575,0,0,1,1.117-.479h1.6c.4,0,.558.16.558.4q0,.239-.479.718L285.545,23.055l11.887,11.807a1.163,1.163,0,0,1,.4.638c0,.319-.16.479-.558.479h-1.915a1.321,1.321,0,0,1-.957-.4L282.912,24.012V35.261a.635.635,0,0,1-.718.718Z" transform="translate(-204.414 0)"/><path class="a" d="M314.749,39.447c-3.59,0-6.3-1.117-8.137-3.271s-2.712-5.425-2.712-9.733c0-4.069.878-7.26,2.712-9.493a9.364,9.364,0,0,1,7.658-3.351,7.94,7.94,0,0,1,6.3,2.553c1.436,1.675,2.234,4.069,2.234,7.26a26.029,26.029,0,0,1-.16,2.952.733.733,0,0,1-.8.718H306.533c0,3.43.718,5.9,2.074,7.579,1.356,1.6,3.43,2.393,6.3,2.393a16.6,16.6,0,0,0,6.222-1.2,2.6,2.6,0,0,1,.8-.239.414.414,0,0,1,.319.16.609.609,0,0,1,.16.4v.718c0,.558-.16.878-.479,1.037A17.8,17.8,0,0,1,314.749,39.447Zm5.584-14.758c0-.479.08-.957.08-1.6a7.833,7.833,0,0,0-1.6-5.265,5.888,5.888,0,0,0-4.627-1.835c-4.786,0-7.26,2.872-7.579,8.7Z" transform="translate(-209.207 -2.751)"/><path class="a" d="M340.512,37.451a5.24,5.24,0,0,1-4.069-1.516,6.266,6.266,0,0,1-1.436-4.467V15.113h-3.59a.635.635,0,0,1-.718-.718v-.479a.929.929,0,0,1,.16-.558c.08-.16.239-.239.558-.239l3.67-.319.319-6.382a.621.621,0,0,1,.239-.558.674.674,0,0,1,.479-.16h.8a.635.635,0,0,1,.718.718V12.8h6.542a.635.635,0,0,1,.718.718v.957a.635.635,0,0,1-.718.718h-6.542V31.388a3.773,3.773,0,0,0,.8,2.792,3.592,3.592,0,0,0,2.633.8,9.82,9.82,0,0,0,2.313-.239,3.512,3.512,0,0,1,.8-.16.868.868,0,0,1,.4-.08c.319,0,.479.16.479.558v.718c0,.558-.159.878-.479,1.037A12.8,12.8,0,0,1,340.512,37.451Z" transform="translate(-214.627 -1.153)"/><path class="a" d="M354.418,48.781a.635.635,0,0,1-.718-.718V15.036a.635.635,0,0,1,.718-.718h.877a.733.733,0,0,1,.8.718l.16,1.994a14.667,14.667,0,0,1,4.069-2.633,10.276,10.276,0,0,1,4.069-.8,8.193,8.193,0,0,1,6.94,3.351c1.675,2.234,2.553,5.345,2.553,9.254q0,5.983-2.633,9.573a8.43,8.43,0,0,1-7.18,3.59,10.732,10.732,0,0,1-7.579-3.271V48.143a.635.635,0,0,1-.718.718h-1.356Zm9.254-12.046a6.441,6.441,0,0,0,5.584-2.633c1.276-1.755,1.915-4.308,1.915-7.738,0-6.861-2.393-10.291-7.26-10.291a11.769,11.769,0,0,0-7.5,3.111v14.28A13.207,13.207,0,0,0,360,35.937,9.464,9.464,0,0,0,363.672,36.735Z" transform="translate(-219.279 -2.751)"/><path class="a" d="M389.129,36.138a3.6,3.6,0,0,1-2.792-1.117A4.528,4.528,0,0,1,385.3,31.83V.718A.635.635,0,0,1,386.018,0h1.2a.635.635,0,0,1,.718.718V31.751a2.465,2.465,0,0,0,.4,1.516c.239.319.718.4,1.356.4a1.983,1.983,0,0,0,.638-.08c.239,0,.4-.08.558-.08.4,0,.638.239.638.718v.957a.636.636,0,0,1-.558.718A7.242,7.242,0,0,1,389.129,36.138Z" transform="translate(-225.67 0)"/><path class="a" d="M403.681,39.267a6.49,6.49,0,0,1-4.946-1.915,7.275,7.275,0,0,1-1.835-5.106,7.048,7.048,0,0,1,2.234-5.584,8.937,8.937,0,0,1,6.143-2.074,22.014,22.014,0,0,1,6.462,1.117V21.637c0-1.994-.4-3.43-1.276-4.228-.878-.878-2.313-1.276-4.308-1.276a20.807,20.807,0,0,0-6.621,1.2,2.328,2.328,0,0,1-.718.16c-.319,0-.479-.239-.479-.638v-.8a1.5,1.5,0,0,1,.16-.638c.08-.16.239-.239.479-.4a18.644,18.644,0,0,1,7.579-1.516c2.712,0,4.627.638,5.9,1.835a7.134,7.134,0,0,1,1.915,5.425V37.991a.635.635,0,0,1-.718.718H412.7a.635.635,0,0,1-.718-.718l-.16-2.074A12.5,12.5,0,0,1,403.681,39.267ZM404,36.715A10.67,10.67,0,0,0,407.67,36a16.319,16.319,0,0,0,3.989-2.154V27.78a22.054,22.054,0,0,0-5.9-.878c-4.228,0-6.3,1.755-6.3,5.265a4.922,4.922,0,0,0,1.117,3.43A5.211,5.211,0,0,0,404,36.715Z" transform="translate(-228.016 -2.73)"/><path class="a" d="M435.69,39.328c-3.51,0-6.143-1.117-7.977-3.271S425,30.712,425,26.564s.957-7.339,2.792-9.493,4.547-3.271,7.977-3.271a12.211,12.211,0,0,1,4.787.957c.4.16.558.479.558,1.037v.718c0,.4-.16.638-.558.638a.479.479,0,0,1-.319-.08,3.586,3.586,0,0,1-.638-.16,13.881,13.881,0,0,0-3.59-.479q-4.308,0-6.223,2.393c-1.276,1.6-1.915,4.069-1.915,7.579v.558c0,3.351.638,5.824,1.915,7.5,1.276,1.6,3.351,2.393,6.143,2.393a14.746,14.746,0,0,0,3.909-.638,4.045,4.045,0,0,1,.718-.16c.159,0,.239-.08.319-.08.4,0,.558.239.558.638v.718c0,.558-.16.878-.479,1.037A17.041,17.041,0,0,1,435.69,39.328Z" transform="translate(-233.699 -2.791)"/><path class="a" d="M459.549,39.447c-3.59,0-6.3-1.117-8.137-3.271s-2.712-5.425-2.712-9.733c0-4.069.877-7.26,2.712-9.493a9.364,9.364,0,0,1,7.658-3.351,7.94,7.94,0,0,1,6.3,2.553c1.436,1.675,2.234,4.069,2.234,7.26a26.02,26.02,0,0,1-.16,2.952.733.733,0,0,1-.8.718H451.333c0,3.43.718,5.9,2.074,7.579,1.356,1.6,3.43,2.393,6.3,2.393a16.6,16.6,0,0,0,6.222-1.2,2.6,2.6,0,0,1,.8-.239.414.414,0,0,1,.319.16.609.609,0,0,1,.16.4v.718c0,.558-.16.878-.479,1.037A18.089,18.089,0,0,1,459.549,39.447Zm5.584-14.758c0-.479.08-.957.08-1.6a7.833,7.833,0,0,0-1.6-5.265,5.888,5.888,0,0,0-4.627-1.835c-4.786,0-7.26,2.872-7.579,8.7Z" transform="translate(-238.492 -2.751)"/></g><g transform="translate(0 3.749)"><circle class="a" cx="3.271" cy="3.271" r="3.271" transform="translate(7.419 33.984)"/><circle class="a" cx="3.271" cy="3.271" r="3.271" transform="translate(26.246 33.984)"/><path class="a" d="M50.976,13.2H36.3L30.474,33.144H9.254L5.584,21.417H0L5.824,38.888H33.9l6.621-21.22H50.976Z" transform="translate(0 -6.419)"/><g transform="translate(6.222)"><g transform="translate(14.36)"><path class="b" d="M25.8,15.88l6.382,2.952L38.484,8.7H25.8Z" transform="translate(-25.8 -5.509)"/><path class="c" d="M40.1,15.88l-6.3,2.952V8.7h6.3Z" transform="translate(-27.418 -5.509)"/><path class="d" d="M32.182,4.7,25.8,7.891l6.382,2.872,6.3-2.872Z" transform="translate(-25.8 -4.7)"/></g><path class="e" d="M7.8,15.88l6.382,2.952L20.484,8.7H7.8Z" transform="translate(-7.8 -5.509)"/><path class="f" d="M22.1,15.88l-6.3,2.952V8.7h6.3Z" transform="translate(-9.418 -5.509)"/><path class="g" d="M14.182,4.7,7.8,7.891l6.382,2.872,6.3-2.872Z" transform="translate(-7.8 -4.7)"/><g transform="translate(7.18 11.807)"><path class="h" d="M16.8,30.619l6.382,2.952,6.3-10.371H16.8Z" transform="translate(-16.8 -20.248)"/><path class="i" d="M31.1,30.619l-6.3,2.952V23.2h6.3Z" transform="translate(-18.418 -20.248)"/><path class="j" d="M23.182,19.5l6.3,2.952-6.3,3.111L16.8,22.452Z" transform="translate(-16.8 -19.5)"/></g></g></g></svg>