<svg xmlns="http://www.w3.org/2000/svg" xmlns:xlink="http://www.w3.org/1999/xlink" viewBox="0 0 449 460.43"><defs><style>.cls-1{fill:url(#linear-gradient);}</style><linearGradient id="linear-gradient" x1="224.5" y1="460.43" x2="224.5" gradientUnits="userSpaceOnUse"><stop offset="0" stop-color="#8b85ff"/><stop offset="1" stop-color="#5951ff"/></linearGradient></defs><g id="Layer_2" data-name="Layer 2"><g id="Layer_1-2" data-name="Layer 1"><path class="cls-1" d="M186.37,230.15v.13a440.12,440.12,0,0,1-33.66,169.23,20.19,20.19,0,1,1-37.31-15.45A399.87,399.87,0,0,0,146,230.43h0V230h0A399.83,399.83,0,0,0,115.4,76.37a20.19,20.19,0,0,1,37.31-15.45A440.12,440.12,0,0,1,186.37,230.15Zm177-.15h0a313.22,313.22,0,0,0-3.43-48.69,20.19,20.19,0,0,0-23.74-16.85c-10.45,2-17.69,12.72-16.13,23.24A274.1,274.1,0,0,1,323,230h0v.43h0a274.1,274.1,0,0,1-2.92,42.3c-1.6,10.77,5.43,21.21,16.13,23.23a20.18,20.18,0,0,0,23.74-16.84,313.22,313.22,0,0,0,3.43-48.69h0V230Zm-86.13,0a470.36,470.36,0,0,0-12.92-109.54,20.19,20.19,0,0,0-39.26,9.42,430.22,430.22,0,0,1,11.81,100.33,430.09,430.09,0,0,1-11.81,100.33A20.19,20.19,0,1,0,264.32,340a470.43,470.43,0,0,0,12.92-109.54h0V230ZM92.58,230A468.44,468.44,0,0,0,38,10.75,20.19,20.19,0,1,0,2.35,29.64,428.23,428.23,0,0,1,52.2,230.21,428.24,428.24,0,0,1,2.35,430.79,20.19,20.19,0,1,0,38,449.68,468.5,468.5,0,0,0,92.58,230.43h0V230ZM426,207.43a23,23,0,1,0,23,23A23,23,0,0,0,426,207.43Z"/></g></g></svg>