<svg id="Layer_2" data-name="Layer 2" xmlns="http://www.w3.org/2000/svg" width="30.767" height="30" viewBox="0 0 30.767 30">
  <g id="Surfaces">
    <g id="UI_UX_Surface" data-name="UI UX Surface">
      <g id="Outline_no_shadow" data-name="Outline no shadow">
        <rect id="Rectangle_149765" data-name="Rectangle 149765" width="30.767" height="30" rx="5.45" fill="#470137"/>
      </g>
    </g>
  </g>
  <g id="Outlined_Mnemonics_Logos" data-name="Outlined Mnemonics Logos">
    <g id="Xd">
      <path id="Path_103406" data-name="Path 103406" d="M16.178,7.889l-3.844,6.339,4.111,6.728a.211.211,0,0,1,0,.156c0,.05-.067,0-.144,0H13.389c-.206,0-.35,0-.433-.144l-.828-1.6c-.272-.528-.556-1.067-.878-1.617s-.611-1.111-.917-1.667h0c-.272.556-.556,1.111-.856,1.667L8.6,19.389c-.289.556-.556,1.111-.883,1.622-.056.122-.156.139-.289.139H4.578c-.056,0-.089,0-.094-.033a.189.189,0,0,1,0-.144l4.011-6.528L4.606,7.878c-.039-.05-.05-.1,0-.133a.156.156,0,0,1,.128-.05H7.639a.367.367,0,0,1,.189.033.389.389,0,0,1,.122.111c.25.556.522,1.111.828,1.667s.606,1.111.917,1.633.583,1.05.861,1.6h0c.272-.556.556-1.111.833-1.667s.556-1.078.867-1.622.583-1.083.861-1.617A.306.306,0,0,1,13.2,7.7a.272.272,0,0,1,.161-.033h2.706a.119.119,0,0,1,.106.206Z" fill="#ff61f6"/>
      <path id="Path_103407" data-name="Path 103407" d="M22.1,21.411a6.444,6.444,0,0,1-2.778-.556,4.444,4.444,0,0,1-1.933-1.744,5.594,5.594,0,0,1-.7-2.922,5.428,5.428,0,0,1,.7-2.706,5.183,5.183,0,0,1,2.056-2,6.561,6.561,0,0,1,3.244-.744,2.528,2.528,0,0,1,.267,0h.389V6.711c0-.094.044-.144.128-.144h2.639a.106.106,0,0,1,.122.094V18.889a6.206,6.206,0,0,0,.033.767c.033.278.039.522.05.744a.222.222,0,0,1-.122.206,10.139,10.139,0,0,1-2.089.617,11.25,11.25,0,0,1-2.006.189Zm1.233-2.561V13.217a1.733,1.733,0,0,0-.339-.061,3.583,3.583,0,0,0-.422,0,3.178,3.178,0,0,0-1.444.328,2.778,2.778,0,0,0-1.111.95,2.828,2.828,0,0,0-.422,1.633,3.544,3.544,0,0,0,.217,1.317,2.45,2.45,0,0,0,.556.911,2.189,2.189,0,0,0,.867.517,3.444,3.444,0,0,0,1.061.167h.556A2.072,2.072,0,0,0,23.333,18.85Z" fill="#ff61f6"/>
    </g>
  </g>
</svg>
